G04 #@! TF.GenerationSoftware,KiCad,Pcbnew,5.1.5+dfsg1-2build2*
G04 #@! TF.CreationDate,2023-02-08T22:02:59+01:00*
G04 #@! TF.ProjectId,EcoApi_loadCellCombinator,45636f41-7069-45f6-9c6f-616443656c6c,rev?*
G04 #@! TF.SameCoordinates,Original*
G04 #@! TF.FileFunction,Soldermask,Bot*
G04 #@! TF.FilePolarity,Negative*
%FSLAX46Y46*%
G04 Gerber Fmt 4.6, Leading zero omitted, Abs format (unit mm)*
G04 Created by KiCad (PCBNEW 5.1.5+dfsg1-2build2) date 2023-02-08 22:02:59*
%MOMM*%
%LPD*%
G04 APERTURE LIST*
%ADD10C,0.100000*%
G04 APERTURE END LIST*
D10*
G36*
X186741000Y-104951000D02*
G01*
X184939000Y-104951000D01*
X184939000Y-103149000D01*
X186741000Y-103149000D01*
X186741000Y-104951000D01*
G37*
G36*
X191033512Y-103153927D02*
G01*
X191182812Y-103183624D01*
X191346784Y-103251544D01*
X191494354Y-103350147D01*
X191619853Y-103475646D01*
X191718456Y-103623216D01*
X191786376Y-103787188D01*
X191821000Y-103961259D01*
X191821000Y-104138741D01*
X191786376Y-104312812D01*
X191718456Y-104476784D01*
X191619853Y-104624354D01*
X191494354Y-104749853D01*
X191346784Y-104848456D01*
X191182812Y-104916376D01*
X191033512Y-104946073D01*
X191008742Y-104951000D01*
X190831258Y-104951000D01*
X190806488Y-104946073D01*
X190657188Y-104916376D01*
X190493216Y-104848456D01*
X190345646Y-104749853D01*
X190220147Y-104624354D01*
X190121544Y-104476784D01*
X190053624Y-104312812D01*
X190019000Y-104138741D01*
X190019000Y-103961259D01*
X190053624Y-103787188D01*
X190121544Y-103623216D01*
X190220147Y-103475646D01*
X190345646Y-103350147D01*
X190493216Y-103251544D01*
X190657188Y-103183624D01*
X190806488Y-103153927D01*
X190831258Y-103149000D01*
X191008742Y-103149000D01*
X191033512Y-103153927D01*
G37*
G36*
X188493512Y-103153927D02*
G01*
X188642812Y-103183624D01*
X188806784Y-103251544D01*
X188954354Y-103350147D01*
X189079853Y-103475646D01*
X189178456Y-103623216D01*
X189246376Y-103787188D01*
X189281000Y-103961259D01*
X189281000Y-104138741D01*
X189246376Y-104312812D01*
X189178456Y-104476784D01*
X189079853Y-104624354D01*
X188954354Y-104749853D01*
X188806784Y-104848456D01*
X188642812Y-104916376D01*
X188493512Y-104946073D01*
X188468742Y-104951000D01*
X188291258Y-104951000D01*
X188266488Y-104946073D01*
X188117188Y-104916376D01*
X187953216Y-104848456D01*
X187805646Y-104749853D01*
X187680147Y-104624354D01*
X187581544Y-104476784D01*
X187513624Y-104312812D01*
X187479000Y-104138741D01*
X187479000Y-103961259D01*
X187513624Y-103787188D01*
X187581544Y-103623216D01*
X187680147Y-103475646D01*
X187805646Y-103350147D01*
X187953216Y-103251544D01*
X188117188Y-103183624D01*
X188266488Y-103153927D01*
X188291258Y-103149000D01*
X188468742Y-103149000D01*
X188493512Y-103153927D01*
G37*
G36*
X182163512Y-103143927D02*
G01*
X182312812Y-103173624D01*
X182476784Y-103241544D01*
X182624354Y-103340147D01*
X182749853Y-103465646D01*
X182848456Y-103613216D01*
X182916376Y-103777188D01*
X182951000Y-103951259D01*
X182951000Y-104128741D01*
X182916376Y-104302812D01*
X182848456Y-104466784D01*
X182749853Y-104614354D01*
X182624354Y-104739853D01*
X182476784Y-104838456D01*
X182312812Y-104906376D01*
X182163512Y-104936073D01*
X182138742Y-104941000D01*
X181961258Y-104941000D01*
X181936488Y-104936073D01*
X181787188Y-104906376D01*
X181623216Y-104838456D01*
X181475646Y-104739853D01*
X181350147Y-104614354D01*
X181251544Y-104466784D01*
X181183624Y-104302812D01*
X181149000Y-104128741D01*
X181149000Y-103951259D01*
X181183624Y-103777188D01*
X181251544Y-103613216D01*
X181350147Y-103465646D01*
X181475646Y-103340147D01*
X181623216Y-103241544D01*
X181787188Y-103173624D01*
X181936488Y-103143927D01*
X181961258Y-103139000D01*
X182138742Y-103139000D01*
X182163512Y-103143927D01*
G37*
G36*
X179623512Y-103143927D02*
G01*
X179772812Y-103173624D01*
X179936784Y-103241544D01*
X180084354Y-103340147D01*
X180209853Y-103465646D01*
X180308456Y-103613216D01*
X180376376Y-103777188D01*
X180411000Y-103951259D01*
X180411000Y-104128741D01*
X180376376Y-104302812D01*
X180308456Y-104466784D01*
X180209853Y-104614354D01*
X180084354Y-104739853D01*
X179936784Y-104838456D01*
X179772812Y-104906376D01*
X179623512Y-104936073D01*
X179598742Y-104941000D01*
X179421258Y-104941000D01*
X179396488Y-104936073D01*
X179247188Y-104906376D01*
X179083216Y-104838456D01*
X178935646Y-104739853D01*
X178810147Y-104614354D01*
X178711544Y-104466784D01*
X178643624Y-104302812D01*
X178609000Y-104128741D01*
X178609000Y-103951259D01*
X178643624Y-103777188D01*
X178711544Y-103613216D01*
X178810147Y-103465646D01*
X178935646Y-103340147D01*
X179083216Y-103241544D01*
X179247188Y-103173624D01*
X179396488Y-103143927D01*
X179421258Y-103139000D01*
X179598742Y-103139000D01*
X179623512Y-103143927D01*
G37*
G36*
X177871000Y-104941000D02*
G01*
X176069000Y-104941000D01*
X176069000Y-103139000D01*
X177871000Y-103139000D01*
X177871000Y-104941000D01*
G37*
G36*
X164193454Y-100531329D02*
G01*
X164507566Y-100661438D01*
X164790260Y-100850328D01*
X165030672Y-101090740D01*
X165219562Y-101373434D01*
X165349671Y-101687546D01*
X165416000Y-102021003D01*
X165416000Y-102360997D01*
X165349671Y-102694454D01*
X165219562Y-103008566D01*
X165030672Y-103291260D01*
X164790260Y-103531672D01*
X164507566Y-103720562D01*
X164193454Y-103850671D01*
X163859997Y-103917000D01*
X163520003Y-103917000D01*
X163186546Y-103850671D01*
X162872434Y-103720562D01*
X162589740Y-103531672D01*
X162349328Y-103291260D01*
X162160438Y-103008566D01*
X162030329Y-102694454D01*
X161964000Y-102360997D01*
X161964000Y-102021003D01*
X162030329Y-101687546D01*
X162160438Y-101373434D01*
X162349328Y-101090740D01*
X162589740Y-100850328D01*
X162872434Y-100661438D01*
X163186546Y-100531329D01*
X163520003Y-100465000D01*
X163859997Y-100465000D01*
X164193454Y-100531329D01*
G37*
G36*
X168126000Y-102316000D02*
G01*
X166374000Y-102316000D01*
X166374000Y-100564000D01*
X168126000Y-100564000D01*
X168126000Y-102316000D01*
G37*
G36*
X172784911Y-100244496D02*
G01*
X172912760Y-100297453D01*
X173027815Y-100374330D01*
X173125670Y-100472185D01*
X173202547Y-100587240D01*
X173255504Y-100715089D01*
X173282500Y-100850808D01*
X173282500Y-100989192D01*
X173255504Y-101124911D01*
X173202547Y-101252760D01*
X173125670Y-101367815D01*
X173027815Y-101465670D01*
X172912760Y-101542547D01*
X172784911Y-101595504D01*
X172649192Y-101622500D01*
X172510808Y-101622500D01*
X172375089Y-101595504D01*
X172247240Y-101542547D01*
X172132185Y-101465670D01*
X172034330Y-101367815D01*
X171957453Y-101252760D01*
X171904496Y-101124911D01*
X171877500Y-100989192D01*
X171877500Y-100850808D01*
X171904496Y-100715089D01*
X171957453Y-100587240D01*
X172034330Y-100472185D01*
X172132185Y-100374330D01*
X172247240Y-100297453D01*
X172375089Y-100244496D01*
X172510808Y-100217500D01*
X172649192Y-100217500D01*
X172784911Y-100244496D01*
G37*
G36*
X193073512Y-99283927D02*
G01*
X193222812Y-99313624D01*
X193386784Y-99381544D01*
X193534354Y-99480147D01*
X193659853Y-99605646D01*
X193758456Y-99753216D01*
X193826376Y-99917188D01*
X193861000Y-100091259D01*
X193861000Y-100268741D01*
X193826376Y-100442812D01*
X193758456Y-100606784D01*
X193659853Y-100754354D01*
X193534354Y-100879853D01*
X193386784Y-100978456D01*
X193222812Y-101046376D01*
X193073512Y-101076073D01*
X193048742Y-101081000D01*
X192871258Y-101081000D01*
X192846488Y-101076073D01*
X192697188Y-101046376D01*
X192533216Y-100978456D01*
X192385646Y-100879853D01*
X192260147Y-100754354D01*
X192161544Y-100606784D01*
X192093624Y-100442812D01*
X192059000Y-100268741D01*
X192059000Y-100091259D01*
X192093624Y-99917188D01*
X192161544Y-99753216D01*
X192260147Y-99605646D01*
X192385646Y-99480147D01*
X192533216Y-99381544D01*
X192697188Y-99313624D01*
X192846488Y-99283927D01*
X192871258Y-99279000D01*
X193048742Y-99279000D01*
X193073512Y-99283927D01*
G37*
G36*
X170244911Y-98974496D02*
G01*
X170372760Y-99027453D01*
X170487815Y-99104330D01*
X170585670Y-99202185D01*
X170662547Y-99317240D01*
X170715504Y-99445089D01*
X170742500Y-99580808D01*
X170742500Y-99719192D01*
X170715504Y-99854911D01*
X170662547Y-99982760D01*
X170585670Y-100097815D01*
X170487815Y-100195670D01*
X170372760Y-100272547D01*
X170244911Y-100325504D01*
X170109192Y-100352500D01*
X169970808Y-100352500D01*
X169835089Y-100325504D01*
X169707240Y-100272547D01*
X169592185Y-100195670D01*
X169494330Y-100097815D01*
X169417453Y-99982760D01*
X169364496Y-99854911D01*
X169337500Y-99719192D01*
X169337500Y-99580808D01*
X169364496Y-99445089D01*
X169417453Y-99317240D01*
X169494330Y-99202185D01*
X169592185Y-99104330D01*
X169707240Y-99027453D01*
X169835089Y-98974496D01*
X169970808Y-98947500D01*
X170109192Y-98947500D01*
X170244911Y-98974496D01*
G37*
G36*
X167505520Y-98097664D02*
G01*
X167664942Y-98163699D01*
X167808418Y-98259566D01*
X167930434Y-98381582D01*
X168026301Y-98525058D01*
X168051093Y-98584912D01*
X168092336Y-98684481D01*
X168126000Y-98853720D01*
X168126000Y-99026280D01*
X168120187Y-99055503D01*
X168092336Y-99195520D01*
X168026301Y-99354942D01*
X167930434Y-99498418D01*
X167808418Y-99620434D01*
X167664942Y-99716301D01*
X167505520Y-99782336D01*
X167336280Y-99816000D01*
X167163720Y-99816000D01*
X167079101Y-99799168D01*
X166994480Y-99782336D01*
X166835058Y-99716301D01*
X166691582Y-99620434D01*
X166569566Y-99498418D01*
X166473699Y-99354942D01*
X166407664Y-99195520D01*
X166379813Y-99055503D01*
X166374000Y-99026280D01*
X166374000Y-98853720D01*
X166407664Y-98684481D01*
X166448907Y-98584912D01*
X166473699Y-98525058D01*
X166569566Y-98381582D01*
X166691582Y-98259566D01*
X166835058Y-98163699D01*
X166994480Y-98097664D01*
X167163720Y-98064000D01*
X167336280Y-98064000D01*
X167505520Y-98097664D01*
G37*
G36*
X172784911Y-97704496D02*
G01*
X172912760Y-97757453D01*
X173027815Y-97834330D01*
X173125670Y-97932185D01*
X173202547Y-98047240D01*
X173255504Y-98175089D01*
X173282500Y-98310808D01*
X173282500Y-98449192D01*
X173255504Y-98584911D01*
X173202547Y-98712760D01*
X173125670Y-98827815D01*
X173027815Y-98925670D01*
X172912760Y-99002547D01*
X172784911Y-99055504D01*
X172649192Y-99082500D01*
X172510808Y-99082500D01*
X172375089Y-99055504D01*
X172247240Y-99002547D01*
X172132185Y-98925670D01*
X172034330Y-98827815D01*
X171957453Y-98712760D01*
X171904496Y-98584911D01*
X171877500Y-98449192D01*
X171877500Y-98310808D01*
X171904496Y-98175089D01*
X171957453Y-98047240D01*
X172034330Y-97932185D01*
X172132185Y-97834330D01*
X172247240Y-97757453D01*
X172375089Y-97704496D01*
X172510808Y-97677500D01*
X172649192Y-97677500D01*
X172784911Y-97704496D01*
G37*
G36*
X193073512Y-96743927D02*
G01*
X193222812Y-96773624D01*
X193386784Y-96841544D01*
X193534354Y-96940147D01*
X193659853Y-97065646D01*
X193758456Y-97213216D01*
X193826376Y-97377188D01*
X193861000Y-97551259D01*
X193861000Y-97728741D01*
X193826376Y-97902812D01*
X193758456Y-98066784D01*
X193659853Y-98214354D01*
X193534354Y-98339853D01*
X193386784Y-98438456D01*
X193222812Y-98506376D01*
X193073512Y-98536073D01*
X193048742Y-98541000D01*
X192871258Y-98541000D01*
X192846488Y-98536073D01*
X192697188Y-98506376D01*
X192533216Y-98438456D01*
X192385646Y-98339853D01*
X192260147Y-98214354D01*
X192161544Y-98066784D01*
X192093624Y-97902812D01*
X192059000Y-97728741D01*
X192059000Y-97551259D01*
X192093624Y-97377188D01*
X192161544Y-97213216D01*
X192260147Y-97065646D01*
X192385646Y-96940147D01*
X192533216Y-96841544D01*
X192697188Y-96773624D01*
X192846488Y-96743927D01*
X192871258Y-96739000D01*
X193048742Y-96739000D01*
X193073512Y-96743927D01*
G37*
G36*
X170244911Y-96434496D02*
G01*
X170372760Y-96487453D01*
X170487815Y-96564330D01*
X170585670Y-96662185D01*
X170662547Y-96777240D01*
X170715504Y-96905089D01*
X170742500Y-97040808D01*
X170742500Y-97179192D01*
X170715504Y-97314911D01*
X170662547Y-97442760D01*
X170585670Y-97557815D01*
X170487815Y-97655670D01*
X170372760Y-97732547D01*
X170244911Y-97785504D01*
X170109192Y-97812500D01*
X169970808Y-97812500D01*
X169835089Y-97785504D01*
X169707240Y-97732547D01*
X169592185Y-97655670D01*
X169494330Y-97557815D01*
X169417453Y-97442760D01*
X169364496Y-97314911D01*
X169337500Y-97179192D01*
X169337500Y-97040808D01*
X169364496Y-96905089D01*
X169417453Y-96777240D01*
X169494330Y-96662185D01*
X169592185Y-96564330D01*
X169707240Y-96487453D01*
X169835089Y-96434496D01*
X169970808Y-96407500D01*
X170109192Y-96407500D01*
X170244911Y-96434496D01*
G37*
G36*
X167505520Y-95597664D02*
G01*
X167664942Y-95663699D01*
X167808418Y-95759566D01*
X167930434Y-95881582D01*
X168026301Y-96025058D01*
X168087481Y-96172760D01*
X168092336Y-96184481D01*
X168126000Y-96353720D01*
X168126000Y-96526280D01*
X168118431Y-96564330D01*
X168092336Y-96695520D01*
X168026301Y-96854942D01*
X167930434Y-96998418D01*
X167808418Y-97120434D01*
X167664942Y-97216301D01*
X167505520Y-97282336D01*
X167336280Y-97316000D01*
X167163720Y-97316000D01*
X166994480Y-97282336D01*
X166835058Y-97216301D01*
X166691582Y-97120434D01*
X166569566Y-96998418D01*
X166473699Y-96854942D01*
X166407664Y-96695520D01*
X166381569Y-96564330D01*
X166374000Y-96526280D01*
X166374000Y-96353720D01*
X166407664Y-96184481D01*
X166412519Y-96172760D01*
X166473699Y-96025058D01*
X166569566Y-95881582D01*
X166691582Y-95759566D01*
X166835058Y-95663699D01*
X166994480Y-95597664D01*
X167163720Y-95564000D01*
X167336280Y-95564000D01*
X167505520Y-95597664D01*
G37*
G36*
X172784911Y-95164496D02*
G01*
X172912760Y-95217453D01*
X173027815Y-95294330D01*
X173125670Y-95392185D01*
X173202547Y-95507240D01*
X173255504Y-95635089D01*
X173282500Y-95770808D01*
X173282500Y-95909192D01*
X173255504Y-96044911D01*
X173202547Y-96172760D01*
X173125670Y-96287815D01*
X173027815Y-96385670D01*
X172912760Y-96462547D01*
X172784911Y-96515504D01*
X172649192Y-96542500D01*
X172510808Y-96542500D01*
X172375089Y-96515504D01*
X172247240Y-96462547D01*
X172132185Y-96385670D01*
X172034330Y-96287815D01*
X171957453Y-96172760D01*
X171904496Y-96044911D01*
X171877500Y-95909192D01*
X171877500Y-95770808D01*
X171904496Y-95635089D01*
X171957453Y-95507240D01*
X172034330Y-95392185D01*
X172132185Y-95294330D01*
X172247240Y-95217453D01*
X172375089Y-95164496D01*
X172510808Y-95137500D01*
X172649192Y-95137500D01*
X172784911Y-95164496D01*
G37*
G36*
X193073512Y-94203927D02*
G01*
X193222812Y-94233624D01*
X193386784Y-94301544D01*
X193534354Y-94400147D01*
X193659853Y-94525646D01*
X193758456Y-94673216D01*
X193826376Y-94837188D01*
X193861000Y-95011259D01*
X193861000Y-95188741D01*
X193826376Y-95362812D01*
X193758456Y-95526784D01*
X193659853Y-95674354D01*
X193534354Y-95799853D01*
X193386784Y-95898456D01*
X193222812Y-95966376D01*
X193073512Y-95996073D01*
X193048742Y-96001000D01*
X192871258Y-96001000D01*
X192846488Y-95996073D01*
X192697188Y-95966376D01*
X192533216Y-95898456D01*
X192385646Y-95799853D01*
X192260147Y-95674354D01*
X192161544Y-95526784D01*
X192093624Y-95362812D01*
X192059000Y-95188741D01*
X192059000Y-95011259D01*
X192093624Y-94837188D01*
X192161544Y-94673216D01*
X192260147Y-94525646D01*
X192385646Y-94400147D01*
X192533216Y-94301544D01*
X192697188Y-94233624D01*
X192846488Y-94203927D01*
X192871258Y-94199000D01*
X193048742Y-94199000D01*
X193073512Y-94203927D01*
G37*
G36*
X170244911Y-93894496D02*
G01*
X170372760Y-93947453D01*
X170487815Y-94024330D01*
X170585670Y-94122185D01*
X170662547Y-94237240D01*
X170715504Y-94365089D01*
X170742500Y-94500808D01*
X170742500Y-94639192D01*
X170715504Y-94774911D01*
X170662547Y-94902760D01*
X170585670Y-95017815D01*
X170487815Y-95115670D01*
X170372760Y-95192547D01*
X170244911Y-95245504D01*
X170109192Y-95272500D01*
X169970808Y-95272500D01*
X169835089Y-95245504D01*
X169707240Y-95192547D01*
X169592185Y-95115670D01*
X169494330Y-95017815D01*
X169417453Y-94902760D01*
X169364496Y-94774911D01*
X169337500Y-94639192D01*
X169337500Y-94500808D01*
X169364496Y-94365089D01*
X169417453Y-94237240D01*
X169494330Y-94122185D01*
X169592185Y-94024330D01*
X169707240Y-93947453D01*
X169835089Y-93894496D01*
X169970808Y-93867500D01*
X170109192Y-93867500D01*
X170244911Y-93894496D01*
G37*
G36*
X167505520Y-93097664D02*
G01*
X167664942Y-93163699D01*
X167808418Y-93259566D01*
X167930434Y-93381582D01*
X168026301Y-93525058D01*
X168092336Y-93684480D01*
X168126000Y-93853721D01*
X168126000Y-94026279D01*
X168092336Y-94195520D01*
X168026301Y-94354942D01*
X167930434Y-94498418D01*
X167808418Y-94620434D01*
X167664942Y-94716301D01*
X167505520Y-94782336D01*
X167420899Y-94799168D01*
X167336280Y-94816000D01*
X167163720Y-94816000D01*
X167079101Y-94799168D01*
X166994480Y-94782336D01*
X166835058Y-94716301D01*
X166691582Y-94620434D01*
X166569566Y-94498418D01*
X166473699Y-94354942D01*
X166407664Y-94195520D01*
X166374000Y-94026279D01*
X166374000Y-93853721D01*
X166407664Y-93684480D01*
X166473699Y-93525058D01*
X166569566Y-93381582D01*
X166691582Y-93259566D01*
X166835058Y-93163699D01*
X166994480Y-93097664D01*
X167163720Y-93064000D01*
X167336280Y-93064000D01*
X167505520Y-93097664D01*
G37*
G36*
X172784911Y-92624496D02*
G01*
X172912760Y-92677453D01*
X173027815Y-92754330D01*
X173125670Y-92852185D01*
X173202547Y-92967240D01*
X173255504Y-93095089D01*
X173282500Y-93230808D01*
X173282500Y-93369192D01*
X173255504Y-93504911D01*
X173202547Y-93632760D01*
X173125670Y-93747815D01*
X173027815Y-93845670D01*
X172912760Y-93922547D01*
X172784911Y-93975504D01*
X172649192Y-94002500D01*
X172510808Y-94002500D01*
X172375089Y-93975504D01*
X172247240Y-93922547D01*
X172132185Y-93845670D01*
X172034330Y-93747815D01*
X171957453Y-93632760D01*
X171904496Y-93504911D01*
X171877500Y-93369192D01*
X171877500Y-93230808D01*
X171904496Y-93095089D01*
X171957453Y-92967240D01*
X172034330Y-92852185D01*
X172132185Y-92754330D01*
X172247240Y-92677453D01*
X172375089Y-92624496D01*
X172510808Y-92597500D01*
X172649192Y-92597500D01*
X172784911Y-92624496D01*
G37*
G36*
X193861000Y-93461000D02*
G01*
X192059000Y-93461000D01*
X192059000Y-91659000D01*
X193861000Y-91659000D01*
X193861000Y-93461000D01*
G37*
G36*
X170244911Y-91354496D02*
G01*
X170372760Y-91407453D01*
X170487815Y-91484330D01*
X170585670Y-91582185D01*
X170662547Y-91697240D01*
X170715504Y-91825089D01*
X170742500Y-91960808D01*
X170742500Y-92099192D01*
X170715504Y-92234911D01*
X170662547Y-92362760D01*
X170585670Y-92477815D01*
X170487815Y-92575670D01*
X170372760Y-92652547D01*
X170244911Y-92705504D01*
X170109192Y-92732500D01*
X169970808Y-92732500D01*
X169835089Y-92705504D01*
X169707240Y-92652547D01*
X169592185Y-92575670D01*
X169494330Y-92477815D01*
X169417453Y-92362760D01*
X169364496Y-92234911D01*
X169337500Y-92099192D01*
X169337500Y-91960808D01*
X169364496Y-91825089D01*
X169417453Y-91697240D01*
X169494330Y-91582185D01*
X169592185Y-91484330D01*
X169707240Y-91407453D01*
X169835089Y-91354496D01*
X169970808Y-91327500D01*
X170109192Y-91327500D01*
X170244911Y-91354496D01*
G37*
G36*
X164193454Y-89099329D02*
G01*
X164507566Y-89229438D01*
X164790260Y-89418328D01*
X165030672Y-89658740D01*
X165219562Y-89941434D01*
X165349671Y-90255546D01*
X165416000Y-90589003D01*
X165416000Y-90928997D01*
X165349671Y-91262454D01*
X165219562Y-91576566D01*
X165030672Y-91859260D01*
X164790260Y-92099672D01*
X164507566Y-92288562D01*
X164193454Y-92418671D01*
X163859997Y-92485000D01*
X163520003Y-92485000D01*
X163186546Y-92418671D01*
X162872434Y-92288562D01*
X162589740Y-92099672D01*
X162349328Y-91859260D01*
X162160438Y-91576566D01*
X162030329Y-91262454D01*
X161964000Y-90928997D01*
X161964000Y-90589003D01*
X162030329Y-90255546D01*
X162160438Y-89941434D01*
X162349328Y-89658740D01*
X162589740Y-89418328D01*
X162872434Y-89229438D01*
X163186546Y-89099329D01*
X163520003Y-89033000D01*
X163859997Y-89033000D01*
X164193454Y-89099329D01*
G37*
G36*
X167420899Y-90580832D02*
G01*
X167505520Y-90597664D01*
X167664942Y-90663699D01*
X167808418Y-90759566D01*
X167930434Y-90881582D01*
X168026301Y-91025058D01*
X168092336Y-91184480D01*
X168126000Y-91353721D01*
X168126000Y-91526279D01*
X168092336Y-91695520D01*
X168026301Y-91854942D01*
X167930434Y-91998418D01*
X167808418Y-92120434D01*
X167664942Y-92216301D01*
X167505520Y-92282336D01*
X167336280Y-92316000D01*
X167163720Y-92316000D01*
X166994480Y-92282336D01*
X166835058Y-92216301D01*
X166691582Y-92120434D01*
X166569566Y-91998418D01*
X166473699Y-91854942D01*
X166407664Y-91695520D01*
X166374000Y-91526279D01*
X166374000Y-91353721D01*
X166407664Y-91184480D01*
X166473699Y-91025058D01*
X166569566Y-90881582D01*
X166691582Y-90759566D01*
X166835058Y-90663699D01*
X166994480Y-90597664D01*
X167079101Y-90580832D01*
X167163720Y-90564000D01*
X167336280Y-90564000D01*
X167420899Y-90580832D01*
G37*
G36*
X191033512Y-87773927D02*
G01*
X191182812Y-87803624D01*
X191346784Y-87871544D01*
X191494354Y-87970147D01*
X191619853Y-88095646D01*
X191718456Y-88243216D01*
X191786376Y-88407188D01*
X191821000Y-88581259D01*
X191821000Y-88758741D01*
X191786376Y-88932812D01*
X191718456Y-89096784D01*
X191619853Y-89244354D01*
X191494354Y-89369853D01*
X191346784Y-89468456D01*
X191182812Y-89536376D01*
X191033512Y-89566073D01*
X191008742Y-89571000D01*
X190831258Y-89571000D01*
X190806488Y-89566073D01*
X190657188Y-89536376D01*
X190493216Y-89468456D01*
X190345646Y-89369853D01*
X190220147Y-89244354D01*
X190121544Y-89096784D01*
X190053624Y-88932812D01*
X190019000Y-88758741D01*
X190019000Y-88581259D01*
X190053624Y-88407188D01*
X190121544Y-88243216D01*
X190220147Y-88095646D01*
X190345646Y-87970147D01*
X190493216Y-87871544D01*
X190657188Y-87803624D01*
X190806488Y-87773927D01*
X190831258Y-87769000D01*
X191008742Y-87769000D01*
X191033512Y-87773927D01*
G37*
G36*
X188493512Y-87773927D02*
G01*
X188642812Y-87803624D01*
X188806784Y-87871544D01*
X188954354Y-87970147D01*
X189079853Y-88095646D01*
X189178456Y-88243216D01*
X189246376Y-88407188D01*
X189281000Y-88581259D01*
X189281000Y-88758741D01*
X189246376Y-88932812D01*
X189178456Y-89096784D01*
X189079853Y-89244354D01*
X188954354Y-89369853D01*
X188806784Y-89468456D01*
X188642812Y-89536376D01*
X188493512Y-89566073D01*
X188468742Y-89571000D01*
X188291258Y-89571000D01*
X188266488Y-89566073D01*
X188117188Y-89536376D01*
X187953216Y-89468456D01*
X187805646Y-89369853D01*
X187680147Y-89244354D01*
X187581544Y-89096784D01*
X187513624Y-88932812D01*
X187479000Y-88758741D01*
X187479000Y-88581259D01*
X187513624Y-88407188D01*
X187581544Y-88243216D01*
X187680147Y-88095646D01*
X187805646Y-87970147D01*
X187953216Y-87871544D01*
X188117188Y-87803624D01*
X188266488Y-87773927D01*
X188291258Y-87769000D01*
X188468742Y-87769000D01*
X188493512Y-87773927D01*
G37*
G36*
X186741000Y-89571000D02*
G01*
X184939000Y-89571000D01*
X184939000Y-87769000D01*
X186741000Y-87769000D01*
X186741000Y-89571000D01*
G37*
G36*
X177871000Y-89571000D02*
G01*
X176069000Y-89571000D01*
X176069000Y-87769000D01*
X177871000Y-87769000D01*
X177871000Y-89571000D01*
G37*
G36*
X179623512Y-87773927D02*
G01*
X179772812Y-87803624D01*
X179936784Y-87871544D01*
X180084354Y-87970147D01*
X180209853Y-88095646D01*
X180308456Y-88243216D01*
X180376376Y-88407188D01*
X180411000Y-88581259D01*
X180411000Y-88758741D01*
X180376376Y-88932812D01*
X180308456Y-89096784D01*
X180209853Y-89244354D01*
X180084354Y-89369853D01*
X179936784Y-89468456D01*
X179772812Y-89536376D01*
X179623512Y-89566073D01*
X179598742Y-89571000D01*
X179421258Y-89571000D01*
X179396488Y-89566073D01*
X179247188Y-89536376D01*
X179083216Y-89468456D01*
X178935646Y-89369853D01*
X178810147Y-89244354D01*
X178711544Y-89096784D01*
X178643624Y-88932812D01*
X178609000Y-88758741D01*
X178609000Y-88581259D01*
X178643624Y-88407188D01*
X178711544Y-88243216D01*
X178810147Y-88095646D01*
X178935646Y-87970147D01*
X179083216Y-87871544D01*
X179247188Y-87803624D01*
X179396488Y-87773927D01*
X179421258Y-87769000D01*
X179598742Y-87769000D01*
X179623512Y-87773927D01*
G37*
G36*
X182163512Y-87773927D02*
G01*
X182312812Y-87803624D01*
X182476784Y-87871544D01*
X182624354Y-87970147D01*
X182749853Y-88095646D01*
X182848456Y-88243216D01*
X182916376Y-88407188D01*
X182951000Y-88581259D01*
X182951000Y-88758741D01*
X182916376Y-88932812D01*
X182848456Y-89096784D01*
X182749853Y-89244354D01*
X182624354Y-89369853D01*
X182476784Y-89468456D01*
X182312812Y-89536376D01*
X182163512Y-89566073D01*
X182138742Y-89571000D01*
X181961258Y-89571000D01*
X181936488Y-89566073D01*
X181787188Y-89536376D01*
X181623216Y-89468456D01*
X181475646Y-89369853D01*
X181350147Y-89244354D01*
X181251544Y-89096784D01*
X181183624Y-88932812D01*
X181149000Y-88758741D01*
X181149000Y-88581259D01*
X181183624Y-88407188D01*
X181251544Y-88243216D01*
X181350147Y-88095646D01*
X181475646Y-87970147D01*
X181623216Y-87871544D01*
X181787188Y-87803624D01*
X181936488Y-87773927D01*
X181961258Y-87769000D01*
X182138742Y-87769000D01*
X182163512Y-87773927D01*
G37*
M02*
