G04 #@! TF.GenerationSoftware,KiCad,Pcbnew,5.1.5+dfsg1-2build2*
G04 #@! TF.CreationDate,2023-02-08T22:02:59+01:00*
G04 #@! TF.ProjectId,EcoApi_loadCellCombinator,45636f41-7069-45f6-9c6f-616443656c6c,rev?*
G04 #@! TF.SameCoordinates,Original*
G04 #@! TF.FileFunction,Legend,Top*
G04 #@! TF.FilePolarity,Positive*
%FSLAX46Y46*%
G04 Gerber Fmt 4.6, Leading zero omitted, Abs format (unit mm)*
G04 Created by KiCad (PCBNEW 5.1.5+dfsg1-2build2) date 2023-02-08 22:02:59*
%MOMM*%
%LPD*%
G04 APERTURE LIST*
%ADD10C,0.150000*%
%ADD11C,0.010000*%
%ADD12C,0.100000*%
%ADD13C,0.120000*%
%ADD14C,0.187500*%
%ADD15C,3.452000*%
%ADD16C,1.405000*%
%ADD17C,1.752000*%
%ADD18R,1.752000X1.752000*%
%ADD19O,1.802000X1.802000*%
%ADD20R,1.802000X1.802000*%
G04 APERTURE END LIST*
D10*
X166708571Y-89465000D02*
X166637142Y-89429285D01*
X166530000Y-89429285D01*
X166422857Y-89465000D01*
X166351428Y-89536428D01*
X166315714Y-89607857D01*
X166280000Y-89750714D01*
X166280000Y-89857857D01*
X166315714Y-90000714D01*
X166351428Y-90072142D01*
X166422857Y-90143571D01*
X166530000Y-90179285D01*
X166601428Y-90179285D01*
X166708571Y-90143571D01*
X166744285Y-90107857D01*
X166744285Y-89857857D01*
X166601428Y-89857857D01*
X167065714Y-90179285D02*
X167065714Y-89429285D01*
X167494285Y-90179285D01*
X167494285Y-89429285D01*
X167851428Y-90179285D02*
X167851428Y-89429285D01*
X168030000Y-89429285D01*
X168137142Y-89465000D01*
X168208571Y-89536428D01*
X168244285Y-89607857D01*
X168280000Y-89750714D01*
X168280000Y-89857857D01*
X168244285Y-90000714D01*
X168208571Y-90072142D01*
X168137142Y-90143571D01*
X168030000Y-90179285D01*
X167851428Y-90179285D01*
X164727142Y-94105000D02*
X165084285Y-94105000D01*
X164655714Y-94319285D02*
X164905714Y-93569285D01*
X165155714Y-94319285D01*
X165405714Y-94033571D02*
X165977142Y-94033571D01*
X165691428Y-94319285D02*
X165691428Y-93747857D01*
X164687142Y-96485000D02*
X165044285Y-96485000D01*
X164615714Y-96699285D02*
X164865714Y-95949285D01*
X165115714Y-96699285D01*
X165365714Y-96413571D02*
X165937142Y-96413571D01*
X164705000Y-98906428D02*
X164955000Y-98906428D01*
X165062142Y-99299285D02*
X164705000Y-99299285D01*
X164705000Y-98549285D01*
X165062142Y-98549285D01*
X165383571Y-99013571D02*
X165955000Y-99013571D01*
X166665000Y-103106428D02*
X166915000Y-103106428D01*
X167022142Y-103499285D02*
X166665000Y-103499285D01*
X166665000Y-102749285D01*
X167022142Y-102749285D01*
X167343571Y-103213571D02*
X167915000Y-103213571D01*
X167629285Y-103499285D02*
X167629285Y-102927857D01*
X188759285Y-92973571D02*
X188866428Y-93009285D01*
X189045000Y-93009285D01*
X189116428Y-92973571D01*
X189152142Y-92937857D01*
X189187857Y-92866428D01*
X189187857Y-92795000D01*
X189152142Y-92723571D01*
X189116428Y-92687857D01*
X189045000Y-92652142D01*
X188902142Y-92616428D01*
X188830714Y-92580714D01*
X188795000Y-92545000D01*
X188759285Y-92473571D01*
X188759285Y-92402142D01*
X188795000Y-92330714D01*
X188830714Y-92295000D01*
X188902142Y-92259285D01*
X189080714Y-92259285D01*
X189187857Y-92295000D01*
X189509285Y-93009285D02*
X189509285Y-92259285D01*
X189687857Y-92259285D01*
X189795000Y-92295000D01*
X189866428Y-92366428D01*
X189902142Y-92437857D01*
X189937857Y-92580714D01*
X189937857Y-92687857D01*
X189902142Y-92830714D01*
X189866428Y-92902142D01*
X189795000Y-92973571D01*
X189687857Y-93009285D01*
X189509285Y-93009285D01*
X190223571Y-92795000D02*
X190580714Y-92795000D01*
X190152142Y-93009285D02*
X190402142Y-92259285D01*
X190652142Y-93009285D01*
X188777142Y-95413571D02*
X188884285Y-95449285D01*
X189062857Y-95449285D01*
X189134285Y-95413571D01*
X189170000Y-95377857D01*
X189205714Y-95306428D01*
X189205714Y-95235000D01*
X189170000Y-95163571D01*
X189134285Y-95127857D01*
X189062857Y-95092142D01*
X188920000Y-95056428D01*
X188848571Y-95020714D01*
X188812857Y-94985000D01*
X188777142Y-94913571D01*
X188777142Y-94842142D01*
X188812857Y-94770714D01*
X188848571Y-94735000D01*
X188920000Y-94699285D01*
X189098571Y-94699285D01*
X189205714Y-94735000D01*
X189955714Y-95377857D02*
X189920000Y-95413571D01*
X189812857Y-95449285D01*
X189741428Y-95449285D01*
X189634285Y-95413571D01*
X189562857Y-95342142D01*
X189527142Y-95270714D01*
X189491428Y-95127857D01*
X189491428Y-95020714D01*
X189527142Y-94877857D01*
X189562857Y-94806428D01*
X189634285Y-94735000D01*
X189741428Y-94699285D01*
X189812857Y-94699285D01*
X189920000Y-94735000D01*
X189955714Y-94770714D01*
X190634285Y-95449285D02*
X190277142Y-95449285D01*
X190277142Y-94699285D01*
X189128571Y-97285000D02*
X189057142Y-97249285D01*
X188950000Y-97249285D01*
X188842857Y-97285000D01*
X188771428Y-97356428D01*
X188735714Y-97427857D01*
X188700000Y-97570714D01*
X188700000Y-97677857D01*
X188735714Y-97820714D01*
X188771428Y-97892142D01*
X188842857Y-97963571D01*
X188950000Y-97999285D01*
X189021428Y-97999285D01*
X189128571Y-97963571D01*
X189164285Y-97927857D01*
X189164285Y-97677857D01*
X189021428Y-97677857D01*
X189485714Y-97999285D02*
X189485714Y-97249285D01*
X189914285Y-97999285D01*
X189914285Y-97249285D01*
X190271428Y-97999285D02*
X190271428Y-97249285D01*
X190450000Y-97249285D01*
X190557142Y-97285000D01*
X190628571Y-97356428D01*
X190664285Y-97427857D01*
X190700000Y-97570714D01*
X190700000Y-97677857D01*
X190664285Y-97820714D01*
X190628571Y-97892142D01*
X190557142Y-97963571D01*
X190450000Y-97999285D01*
X190271428Y-97999285D01*
X188847142Y-99499285D02*
X189311428Y-99499285D01*
X189061428Y-99785000D01*
X189168571Y-99785000D01*
X189240000Y-99820714D01*
X189275714Y-99856428D01*
X189311428Y-99927857D01*
X189311428Y-100106428D01*
X189275714Y-100177857D01*
X189240000Y-100213571D01*
X189168571Y-100249285D01*
X188954285Y-100249285D01*
X188882857Y-100213571D01*
X188847142Y-100177857D01*
X189561428Y-99749285D02*
X189740000Y-100249285D01*
X189918571Y-99749285D01*
X190132857Y-99499285D02*
X190597142Y-99499285D01*
X190347142Y-99785000D01*
X190454285Y-99785000D01*
X190525714Y-99820714D01*
X190561428Y-99856428D01*
X190597142Y-99927857D01*
X190597142Y-100106428D01*
X190561428Y-100177857D01*
X190525714Y-100213571D01*
X190454285Y-100249285D01*
X190240000Y-100249285D01*
X190168571Y-100213571D01*
X190132857Y-100177857D01*
X188268571Y-102069285D02*
X187911428Y-102069285D01*
X187911428Y-101319285D01*
X188875714Y-102069285D02*
X188518571Y-102069285D01*
X188518571Y-101319285D01*
X175812142Y-101379285D02*
X175812142Y-101986428D01*
X175847857Y-102057857D01*
X175883571Y-102093571D01*
X175955000Y-102129285D01*
X176097857Y-102129285D01*
X176169285Y-102093571D01*
X176205000Y-102057857D01*
X176240714Y-101986428D01*
X176240714Y-101379285D01*
X176955000Y-102129285D02*
X176597857Y-102129285D01*
X176597857Y-101379285D01*
X187757142Y-91509285D02*
X187400000Y-91509285D01*
X187400000Y-90759285D01*
X188435714Y-91509285D02*
X188185714Y-91152142D01*
X188007142Y-91509285D02*
X188007142Y-90759285D01*
X188292857Y-90759285D01*
X188364285Y-90795000D01*
X188400000Y-90830714D01*
X188435714Y-90902142D01*
X188435714Y-91009285D01*
X188400000Y-91080714D01*
X188364285Y-91116428D01*
X188292857Y-91152142D01*
X188007142Y-91152142D01*
X175740714Y-90749285D02*
X175740714Y-91356428D01*
X175776428Y-91427857D01*
X175812142Y-91463571D01*
X175883571Y-91499285D01*
X176026428Y-91499285D01*
X176097857Y-91463571D01*
X176133571Y-91427857D01*
X176169285Y-91356428D01*
X176169285Y-90749285D01*
X176955000Y-91499285D02*
X176705000Y-91142142D01*
X176526428Y-91499285D02*
X176526428Y-90749285D01*
X176812142Y-90749285D01*
X176883571Y-90785000D01*
X176919285Y-90820714D01*
X176955000Y-90892142D01*
X176955000Y-90999285D01*
X176919285Y-91070714D01*
X176883571Y-91106428D01*
X176812142Y-91142142D01*
X176526428Y-91142142D01*
D11*
G36*
X184359818Y-92958781D02*
G01*
X184567462Y-93041332D01*
X184735634Y-93193242D01*
X184858422Y-93406134D01*
X184929916Y-93671634D01*
X184942359Y-93783947D01*
X184943858Y-94003376D01*
X184914192Y-94231966D01*
X184849401Y-94485973D01*
X184745521Y-94781656D01*
X184631621Y-95059112D01*
X184535760Y-95294917D01*
X184474248Y-95481738D01*
X184440038Y-95644445D01*
X184427259Y-95780452D01*
X184371842Y-96097731D01*
X184242704Y-96379438D01*
X184045833Y-96616332D01*
X183787216Y-96799172D01*
X183757135Y-96814653D01*
X183615256Y-96882715D01*
X183520984Y-96913639D01*
X183446641Y-96909021D01*
X183364546Y-96870456D01*
X183313976Y-96840181D01*
X183201853Y-96727170D01*
X183113048Y-96550447D01*
X183049468Y-96328214D01*
X183013019Y-96078672D01*
X183005605Y-95820022D01*
X183021963Y-95646513D01*
X183514343Y-95646513D01*
X183532698Y-95893163D01*
X183582201Y-96092837D01*
X183658574Y-96230371D01*
X183686657Y-96257710D01*
X183764076Y-96306863D01*
X183829178Y-96297478D01*
X183867964Y-96274177D01*
X183937673Y-96202891D01*
X184017163Y-96086362D01*
X184057365Y-96013042D01*
X184133716Y-95811013D01*
X184164124Y-95616075D01*
X184148314Y-95448003D01*
X184086011Y-95326573D01*
X184067147Y-95308973D01*
X183928621Y-95239140D01*
X183785135Y-95252401D01*
X183643581Y-95339597D01*
X183560175Y-95423510D01*
X183522585Y-95513166D01*
X183514343Y-95646513D01*
X183021963Y-95646513D01*
X183029133Y-95570467D01*
X183085507Y-95348207D01*
X183144407Y-95220529D01*
X183153849Y-95208834D01*
X184402333Y-95208834D01*
X184423500Y-95230000D01*
X184444666Y-95208834D01*
X184423500Y-95187667D01*
X184402333Y-95208834D01*
X183153849Y-95208834D01*
X183270656Y-95064165D01*
X183436344Y-94939207D01*
X183613969Y-94863453D01*
X183718558Y-94849000D01*
X183879890Y-94880442D01*
X184051767Y-94962442D01*
X184195735Y-95076506D01*
X184199077Y-95080076D01*
X184304288Y-95193541D01*
X184353310Y-94896699D01*
X184400779Y-94497995D01*
X184399242Y-94163845D01*
X184347220Y-93888736D01*
X184243235Y-93667153D01*
X184085809Y-93493582D01*
X183952817Y-93403157D01*
X183800976Y-93312433D01*
X183716931Y-93246582D01*
X183691427Y-93195386D01*
X183715208Y-93148626D01*
X183718863Y-93144870D01*
X183796775Y-93121426D01*
X183916179Y-93144545D01*
X184054228Y-93205757D01*
X184188074Y-93296589D01*
X184230473Y-93334562D01*
X184404174Y-93561974D01*
X184513435Y-93843318D01*
X184557993Y-94177298D01*
X184537583Y-94562618D01*
X184513079Y-94720345D01*
X184485542Y-94883562D01*
X184467574Y-95011622D01*
X184461837Y-95084478D01*
X184463521Y-95093633D01*
X184489237Y-95071776D01*
X184530151Y-94985684D01*
X184580493Y-94853147D01*
X184634493Y-94691958D01*
X184686379Y-94519911D01*
X184730380Y-94354797D01*
X184760726Y-94214409D01*
X184770066Y-94148513D01*
X184772493Y-93859174D01*
X184715365Y-93615797D01*
X184591151Y-93401339D01*
X184392323Y-93198757D01*
X184326927Y-93145498D01*
X184257344Y-93068079D01*
X184233000Y-93002623D01*
X184251302Y-92956476D01*
X184320040Y-92951897D01*
X184359818Y-92958781D01*
G37*
X184359818Y-92958781D02*
X184567462Y-93041332D01*
X184735634Y-93193242D01*
X184858422Y-93406134D01*
X184929916Y-93671634D01*
X184942359Y-93783947D01*
X184943858Y-94003376D01*
X184914192Y-94231966D01*
X184849401Y-94485973D01*
X184745521Y-94781656D01*
X184631621Y-95059112D01*
X184535760Y-95294917D01*
X184474248Y-95481738D01*
X184440038Y-95644445D01*
X184427259Y-95780452D01*
X184371842Y-96097731D01*
X184242704Y-96379438D01*
X184045833Y-96616332D01*
X183787216Y-96799172D01*
X183757135Y-96814653D01*
X183615256Y-96882715D01*
X183520984Y-96913639D01*
X183446641Y-96909021D01*
X183364546Y-96870456D01*
X183313976Y-96840181D01*
X183201853Y-96727170D01*
X183113048Y-96550447D01*
X183049468Y-96328214D01*
X183013019Y-96078672D01*
X183005605Y-95820022D01*
X183021963Y-95646513D01*
X183514343Y-95646513D01*
X183532698Y-95893163D01*
X183582201Y-96092837D01*
X183658574Y-96230371D01*
X183686657Y-96257710D01*
X183764076Y-96306863D01*
X183829178Y-96297478D01*
X183867964Y-96274177D01*
X183937673Y-96202891D01*
X184017163Y-96086362D01*
X184057365Y-96013042D01*
X184133716Y-95811013D01*
X184164124Y-95616075D01*
X184148314Y-95448003D01*
X184086011Y-95326573D01*
X184067147Y-95308973D01*
X183928621Y-95239140D01*
X183785135Y-95252401D01*
X183643581Y-95339597D01*
X183560175Y-95423510D01*
X183522585Y-95513166D01*
X183514343Y-95646513D01*
X183021963Y-95646513D01*
X183029133Y-95570467D01*
X183085507Y-95348207D01*
X183144407Y-95220529D01*
X183153849Y-95208834D01*
X184402333Y-95208834D01*
X184423500Y-95230000D01*
X184444666Y-95208834D01*
X184423500Y-95187667D01*
X184402333Y-95208834D01*
X183153849Y-95208834D01*
X183270656Y-95064165D01*
X183436344Y-94939207D01*
X183613969Y-94863453D01*
X183718558Y-94849000D01*
X183879890Y-94880442D01*
X184051767Y-94962442D01*
X184195735Y-95076506D01*
X184199077Y-95080076D01*
X184304288Y-95193541D01*
X184353310Y-94896699D01*
X184400779Y-94497995D01*
X184399242Y-94163845D01*
X184347220Y-93888736D01*
X184243235Y-93667153D01*
X184085809Y-93493582D01*
X183952817Y-93403157D01*
X183800976Y-93312433D01*
X183716931Y-93246582D01*
X183691427Y-93195386D01*
X183715208Y-93148626D01*
X183718863Y-93144870D01*
X183796775Y-93121426D01*
X183916179Y-93144545D01*
X184054228Y-93205757D01*
X184188074Y-93296589D01*
X184230473Y-93334562D01*
X184404174Y-93561974D01*
X184513435Y-93843318D01*
X184557993Y-94177298D01*
X184537583Y-94562618D01*
X184513079Y-94720345D01*
X184485542Y-94883562D01*
X184467574Y-95011622D01*
X184461837Y-95084478D01*
X184463521Y-95093633D01*
X184489237Y-95071776D01*
X184530151Y-94985684D01*
X184580493Y-94853147D01*
X184634493Y-94691958D01*
X184686379Y-94519911D01*
X184730380Y-94354797D01*
X184760726Y-94214409D01*
X184770066Y-94148513D01*
X184772493Y-93859174D01*
X184715365Y-93615797D01*
X184591151Y-93401339D01*
X184392323Y-93198757D01*
X184326927Y-93145498D01*
X184257344Y-93068079D01*
X184233000Y-93002623D01*
X184251302Y-92956476D01*
X184320040Y-92951897D01*
X184359818Y-92958781D01*
G36*
X179541254Y-91604577D02*
G01*
X179802286Y-91609015D01*
X180125288Y-91616371D01*
X180516629Y-91626676D01*
X180982679Y-91639960D01*
X181275862Y-91648627D01*
X181720579Y-91661716D01*
X182148668Y-91673970D01*
X182550986Y-91685150D01*
X182918390Y-91695019D01*
X183241736Y-91703337D01*
X183511882Y-91709866D01*
X183719684Y-91714368D01*
X183856001Y-91716605D01*
X183890805Y-91716810D01*
X184037604Y-91719493D01*
X184140824Y-91727026D01*
X184181720Y-91737895D01*
X184180883Y-91740227D01*
X184134806Y-91746764D01*
X184013017Y-91755586D01*
X183824429Y-91766268D01*
X183577954Y-91778384D01*
X183282505Y-91791509D01*
X182946992Y-91805216D01*
X182580329Y-91819079D01*
X182385245Y-91826036D01*
X181969491Y-91840672D01*
X181549164Y-91855666D01*
X181138758Y-91870488D01*
X180752764Y-91884607D01*
X180405677Y-91897492D01*
X180111989Y-91908612D01*
X179886193Y-91917438D01*
X179858381Y-91918559D01*
X179103262Y-91949167D01*
X177667631Y-94295786D01*
X177420002Y-94700988D01*
X177185891Y-95084920D01*
X176968980Y-95441490D01*
X176772948Y-95764608D01*
X176601476Y-96048184D01*
X176458244Y-96286127D01*
X176346932Y-96472346D01*
X176271221Y-96600752D01*
X176234790Y-96665253D01*
X176232000Y-96671640D01*
X176252902Y-96710896D01*
X176312392Y-96814704D01*
X176405647Y-96974926D01*
X176527841Y-97183424D01*
X176674150Y-97432060D01*
X176839750Y-97712698D01*
X177019817Y-98017198D01*
X177209525Y-98337424D01*
X177404050Y-98665238D01*
X177598569Y-98992501D01*
X177788257Y-99311076D01*
X177968289Y-99612826D01*
X178133841Y-99889612D01*
X178280088Y-100133297D01*
X178402206Y-100335743D01*
X178483084Y-100468750D01*
X178532658Y-100556250D01*
X178551797Y-100603587D01*
X178550064Y-100606334D01*
X178518718Y-100575582D01*
X178441408Y-100489854D01*
X178326700Y-100358942D01*
X178183162Y-100192634D01*
X178019361Y-100000724D01*
X177994424Y-99971337D01*
X177842892Y-99787618D01*
X177651658Y-99547816D01*
X177430453Y-99264582D01*
X177189012Y-98950569D01*
X176937068Y-98618427D01*
X176684355Y-98280808D01*
X176460113Y-97977012D01*
X175464269Y-96617683D01*
X175631024Y-96378925D01*
X175684301Y-96302222D01*
X175781016Y-96162532D01*
X175916535Y-95966563D01*
X176086223Y-95721023D01*
X176285448Y-95432620D01*
X176509574Y-95108063D01*
X176753968Y-94754061D01*
X177013997Y-94377322D01*
X177285025Y-93984555D01*
X177331175Y-93917667D01*
X177599511Y-93529083D01*
X177854618Y-93160321D01*
X178092279Y-92817431D01*
X178308279Y-92506464D01*
X178498401Y-92233472D01*
X178658430Y-92004506D01*
X178784149Y-91825618D01*
X178871343Y-91702859D01*
X178915796Y-91642279D01*
X178919730Y-91637567D01*
X178942704Y-91625121D01*
X178989430Y-91615414D01*
X179066279Y-91608476D01*
X179179620Y-91604338D01*
X179335821Y-91603028D01*
X179541254Y-91604577D01*
G37*
X179541254Y-91604577D02*
X179802286Y-91609015D01*
X180125288Y-91616371D01*
X180516629Y-91626676D01*
X180982679Y-91639960D01*
X181275862Y-91648627D01*
X181720579Y-91661716D01*
X182148668Y-91673970D01*
X182550986Y-91685150D01*
X182918390Y-91695019D01*
X183241736Y-91703337D01*
X183511882Y-91709866D01*
X183719684Y-91714368D01*
X183856001Y-91716605D01*
X183890805Y-91716810D01*
X184037604Y-91719493D01*
X184140824Y-91727026D01*
X184181720Y-91737895D01*
X184180883Y-91740227D01*
X184134806Y-91746764D01*
X184013017Y-91755586D01*
X183824429Y-91766268D01*
X183577954Y-91778384D01*
X183282505Y-91791509D01*
X182946992Y-91805216D01*
X182580329Y-91819079D01*
X182385245Y-91826036D01*
X181969491Y-91840672D01*
X181549164Y-91855666D01*
X181138758Y-91870488D01*
X180752764Y-91884607D01*
X180405677Y-91897492D01*
X180111989Y-91908612D01*
X179886193Y-91917438D01*
X179858381Y-91918559D01*
X179103262Y-91949167D01*
X177667631Y-94295786D01*
X177420002Y-94700988D01*
X177185891Y-95084920D01*
X176968980Y-95441490D01*
X176772948Y-95764608D01*
X176601476Y-96048184D01*
X176458244Y-96286127D01*
X176346932Y-96472346D01*
X176271221Y-96600752D01*
X176234790Y-96665253D01*
X176232000Y-96671640D01*
X176252902Y-96710896D01*
X176312392Y-96814704D01*
X176405647Y-96974926D01*
X176527841Y-97183424D01*
X176674150Y-97432060D01*
X176839750Y-97712698D01*
X177019817Y-98017198D01*
X177209525Y-98337424D01*
X177404050Y-98665238D01*
X177598569Y-98992501D01*
X177788257Y-99311076D01*
X177968289Y-99612826D01*
X178133841Y-99889612D01*
X178280088Y-100133297D01*
X178402206Y-100335743D01*
X178483084Y-100468750D01*
X178532658Y-100556250D01*
X178551797Y-100603587D01*
X178550064Y-100606334D01*
X178518718Y-100575582D01*
X178441408Y-100489854D01*
X178326700Y-100358942D01*
X178183162Y-100192634D01*
X178019361Y-100000724D01*
X177994424Y-99971337D01*
X177842892Y-99787618D01*
X177651658Y-99547816D01*
X177430453Y-99264582D01*
X177189012Y-98950569D01*
X176937068Y-98618427D01*
X176684355Y-98280808D01*
X176460113Y-97977012D01*
X175464269Y-96617683D01*
X175631024Y-96378925D01*
X175684301Y-96302222D01*
X175781016Y-96162532D01*
X175916535Y-95966563D01*
X176086223Y-95721023D01*
X176285448Y-95432620D01*
X176509574Y-95108063D01*
X176753968Y-94754061D01*
X177013997Y-94377322D01*
X177285025Y-93984555D01*
X177331175Y-93917667D01*
X177599511Y-93529083D01*
X177854618Y-93160321D01*
X178092279Y-92817431D01*
X178308279Y-92506464D01*
X178498401Y-92233472D01*
X178658430Y-92004506D01*
X178784149Y-91825618D01*
X178871343Y-91702859D01*
X178915796Y-91642279D01*
X178919730Y-91637567D01*
X178942704Y-91625121D01*
X178989430Y-91615414D01*
X179066279Y-91608476D01*
X179179620Y-91604338D01*
X179335821Y-91603028D01*
X179541254Y-91604577D01*
G36*
X180517548Y-92584418D02*
G01*
X180913664Y-92673328D01*
X181287148Y-92836779D01*
X181631655Y-93070000D01*
X181940841Y-93368222D01*
X182208362Y-93726673D01*
X182427872Y-94140585D01*
X182528028Y-94396458D01*
X182584527Y-94613405D01*
X182628298Y-94885989D01*
X182657110Y-95185832D01*
X182668728Y-95484555D01*
X182660922Y-95753781D01*
X182645652Y-95891496D01*
X182613449Y-96097834D01*
X182514041Y-95707834D01*
X182417659Y-95351154D01*
X182326525Y-95062515D01*
X182234841Y-94826019D01*
X182136809Y-94625763D01*
X182089941Y-94544657D01*
X181903124Y-94291746D01*
X181656510Y-94039368D01*
X181372706Y-93807500D01*
X181074317Y-93616123D01*
X180988370Y-93571093D01*
X180807491Y-93485150D01*
X180669931Y-93432678D01*
X180545268Y-93405547D01*
X180403080Y-93395628D01*
X180327942Y-93394626D01*
X180082871Y-93408184D01*
X179912131Y-93451959D01*
X179888292Y-93463430D01*
X179691369Y-93610009D01*
X179562524Y-93799201D01*
X179503199Y-94021387D01*
X179514839Y-94266947D01*
X179598886Y-94526262D01*
X179701252Y-94710325D01*
X179825367Y-94879730D01*
X179971318Y-95037059D01*
X180148766Y-95189108D01*
X180367372Y-95342668D01*
X180636796Y-95504534D01*
X180966699Y-95681498D01*
X181361631Y-95877881D01*
X181617060Y-96003473D01*
X181812034Y-96105413D01*
X181963457Y-96194457D01*
X182088235Y-96281360D01*
X182203271Y-96376879D01*
X182323668Y-96490015D01*
X182462503Y-96635423D01*
X182583839Y-96780743D01*
X182669342Y-96903227D01*
X182692348Y-96947410D01*
X182756240Y-97207362D01*
X182742698Y-97497020D01*
X182652369Y-97813352D01*
X182485901Y-98153327D01*
X182407696Y-98280555D01*
X182278134Y-98464428D01*
X182127603Y-98643457D01*
X181945959Y-98827153D01*
X181723062Y-99025025D01*
X181448770Y-99246583D01*
X181112940Y-99501339D01*
X181079166Y-99526357D01*
X180808050Y-99729925D01*
X180501083Y-99965421D01*
X180187239Y-100210314D01*
X179895493Y-100442071D01*
X179745666Y-100563355D01*
X179542008Y-100729136D01*
X179358415Y-100877427D01*
X179205804Y-100999502D01*
X179095095Y-101086634D01*
X179037207Y-101130099D01*
X179033676Y-101132359D01*
X179029790Y-101118207D01*
X179069857Y-101051033D01*
X179145540Y-100944405D01*
X179165727Y-100917545D01*
X179438610Y-100535397D01*
X179642325Y-100199307D01*
X179777643Y-99907616D01*
X179845333Y-99658661D01*
X179846167Y-99450781D01*
X179846035Y-99450017D01*
X179820380Y-99338720D01*
X179776973Y-99183599D01*
X179732207Y-99040000D01*
X179649593Y-98665025D01*
X179646127Y-98559145D01*
X180049413Y-98559145D01*
X180054533Y-98659683D01*
X180095167Y-98795880D01*
X180158612Y-98933796D01*
X180227130Y-99034046D01*
X180368685Y-99146943D01*
X180534254Y-99190673D01*
X180735431Y-99166791D01*
X180876697Y-99121170D01*
X180949248Y-99085113D01*
X180951661Y-99039072D01*
X180920686Y-98987490D01*
X180834173Y-98890827D01*
X180708545Y-98791444D01*
X180560181Y-98697393D01*
X180405456Y-98616727D01*
X180260749Y-98557496D01*
X180142435Y-98527752D01*
X180066892Y-98535545D01*
X180049413Y-98559145D01*
X179646127Y-98559145D01*
X179636796Y-98274167D01*
X179679917Y-97956779D01*
X180042000Y-97956779D01*
X180055175Y-98025335D01*
X180109802Y-98064103D01*
X180213975Y-98087947D01*
X180424500Y-98148957D01*
X180661682Y-98257951D01*
X180896699Y-98398955D01*
X181100731Y-98555995D01*
X181159948Y-98612259D01*
X181367731Y-98823677D01*
X181485689Y-98730755D01*
X181565032Y-98659315D01*
X181604972Y-98605941D01*
X181605991Y-98601210D01*
X181576183Y-98547002D01*
X181494584Y-98460850D01*
X181379244Y-98358667D01*
X181248215Y-98256366D01*
X181119548Y-98169859D01*
X181110633Y-98164532D01*
X180928632Y-98071300D01*
X180716667Y-97984552D01*
X180502211Y-97913616D01*
X180312733Y-97867822D01*
X180200750Y-97855560D01*
X180095905Y-97861805D01*
X180051061Y-97892431D01*
X180042000Y-97956779D01*
X179679917Y-97956779D01*
X179689879Y-97883456D01*
X179804906Y-97508924D01*
X179876224Y-97367834D01*
X180211200Y-97367834D01*
X180348850Y-97401770D01*
X180786533Y-97528702D01*
X181152253Y-97677784D01*
X181457060Y-97854504D01*
X181712002Y-98064353D01*
X181741347Y-98093628D01*
X181840605Y-98190826D01*
X181916218Y-98257630D01*
X181947852Y-98278000D01*
X181987255Y-98247310D01*
X182051787Y-98171595D01*
X182066038Y-98152714D01*
X182127264Y-98059423D01*
X182157867Y-97992262D01*
X182158666Y-97985707D01*
X182124875Y-97929831D01*
X182034521Y-97843563D01*
X181904137Y-97739242D01*
X181750252Y-97629207D01*
X181589399Y-97525794D01*
X181438109Y-97441343D01*
X181412471Y-97428774D01*
X181233685Y-97353991D01*
X181015349Y-97277617D01*
X180800927Y-97214694D01*
X180774612Y-97208040D01*
X180411361Y-97118364D01*
X180311281Y-97243099D01*
X180211200Y-97367834D01*
X179876224Y-97367834D01*
X179977944Y-97166603D01*
X180205055Y-96872523D01*
X180273200Y-96805828D01*
X180825166Y-96805828D01*
X181100333Y-96899925D01*
X181549047Y-97086011D01*
X181970466Y-97323525D01*
X182116333Y-97423812D01*
X182237172Y-97504564D01*
X182332052Y-97554562D01*
X182380827Y-97563232D01*
X182381239Y-97562869D01*
X182404581Y-97503954D01*
X182421514Y-97397221D01*
X182423572Y-97370985D01*
X182424039Y-97280986D01*
X182401438Y-97214738D01*
X182340610Y-97150219D01*
X182226395Y-97065410D01*
X182201000Y-97047683D01*
X182040768Y-96952369D01*
X181840861Y-96855759D01*
X181643465Y-96778165D01*
X181636033Y-96775683D01*
X181470440Y-96722336D01*
X181356922Y-96694135D01*
X181267346Y-96689114D01*
X181173577Y-96705307D01*
X181064533Y-96735754D01*
X180825166Y-96805828D01*
X180273200Y-96805828D01*
X180283022Y-96796215D01*
X180532255Y-96602623D01*
X180807905Y-96446165D01*
X181084042Y-96339879D01*
X181265782Y-96302069D01*
X181493983Y-96275042D01*
X181291567Y-96195532D01*
X180767778Y-95958401D01*
X180304321Y-95679083D01*
X179882406Y-95345525D01*
X179703333Y-95176739D01*
X179398244Y-94835078D01*
X179169115Y-94491149D01*
X179018272Y-94149452D01*
X178948041Y-93814485D01*
X178942951Y-93706000D01*
X178962033Y-93435230D01*
X179027812Y-93215960D01*
X179148589Y-93024230D01*
X179199518Y-92965530D01*
X179434149Y-92773123D01*
X179724991Y-92643736D01*
X180071407Y-92577642D01*
X180105146Y-92574819D01*
X180517548Y-92584418D01*
G37*
X180517548Y-92584418D02*
X180913664Y-92673328D01*
X181287148Y-92836779D01*
X181631655Y-93070000D01*
X181940841Y-93368222D01*
X182208362Y-93726673D01*
X182427872Y-94140585D01*
X182528028Y-94396458D01*
X182584527Y-94613405D01*
X182628298Y-94885989D01*
X182657110Y-95185832D01*
X182668728Y-95484555D01*
X182660922Y-95753781D01*
X182645652Y-95891496D01*
X182613449Y-96097834D01*
X182514041Y-95707834D01*
X182417659Y-95351154D01*
X182326525Y-95062515D01*
X182234841Y-94826019D01*
X182136809Y-94625763D01*
X182089941Y-94544657D01*
X181903124Y-94291746D01*
X181656510Y-94039368D01*
X181372706Y-93807500D01*
X181074317Y-93616123D01*
X180988370Y-93571093D01*
X180807491Y-93485150D01*
X180669931Y-93432678D01*
X180545268Y-93405547D01*
X180403080Y-93395628D01*
X180327942Y-93394626D01*
X180082871Y-93408184D01*
X179912131Y-93451959D01*
X179888292Y-93463430D01*
X179691369Y-93610009D01*
X179562524Y-93799201D01*
X179503199Y-94021387D01*
X179514839Y-94266947D01*
X179598886Y-94526262D01*
X179701252Y-94710325D01*
X179825367Y-94879730D01*
X179971318Y-95037059D01*
X180148766Y-95189108D01*
X180367372Y-95342668D01*
X180636796Y-95504534D01*
X180966699Y-95681498D01*
X181361631Y-95877881D01*
X181617060Y-96003473D01*
X181812034Y-96105413D01*
X181963457Y-96194457D01*
X182088235Y-96281360D01*
X182203271Y-96376879D01*
X182323668Y-96490015D01*
X182462503Y-96635423D01*
X182583839Y-96780743D01*
X182669342Y-96903227D01*
X182692348Y-96947410D01*
X182756240Y-97207362D01*
X182742698Y-97497020D01*
X182652369Y-97813352D01*
X182485901Y-98153327D01*
X182407696Y-98280555D01*
X182278134Y-98464428D01*
X182127603Y-98643457D01*
X181945959Y-98827153D01*
X181723062Y-99025025D01*
X181448770Y-99246583D01*
X181112940Y-99501339D01*
X181079166Y-99526357D01*
X180808050Y-99729925D01*
X180501083Y-99965421D01*
X180187239Y-100210314D01*
X179895493Y-100442071D01*
X179745666Y-100563355D01*
X179542008Y-100729136D01*
X179358415Y-100877427D01*
X179205804Y-100999502D01*
X179095095Y-101086634D01*
X179037207Y-101130099D01*
X179033676Y-101132359D01*
X179029790Y-101118207D01*
X179069857Y-101051033D01*
X179145540Y-100944405D01*
X179165727Y-100917545D01*
X179438610Y-100535397D01*
X179642325Y-100199307D01*
X179777643Y-99907616D01*
X179845333Y-99658661D01*
X179846167Y-99450781D01*
X179846035Y-99450017D01*
X179820380Y-99338720D01*
X179776973Y-99183599D01*
X179732207Y-99040000D01*
X179649593Y-98665025D01*
X179646127Y-98559145D01*
X180049413Y-98559145D01*
X180054533Y-98659683D01*
X180095167Y-98795880D01*
X180158612Y-98933796D01*
X180227130Y-99034046D01*
X180368685Y-99146943D01*
X180534254Y-99190673D01*
X180735431Y-99166791D01*
X180876697Y-99121170D01*
X180949248Y-99085113D01*
X180951661Y-99039072D01*
X180920686Y-98987490D01*
X180834173Y-98890827D01*
X180708545Y-98791444D01*
X180560181Y-98697393D01*
X180405456Y-98616727D01*
X180260749Y-98557496D01*
X180142435Y-98527752D01*
X180066892Y-98535545D01*
X180049413Y-98559145D01*
X179646127Y-98559145D01*
X179636796Y-98274167D01*
X179679917Y-97956779D01*
X180042000Y-97956779D01*
X180055175Y-98025335D01*
X180109802Y-98064103D01*
X180213975Y-98087947D01*
X180424500Y-98148957D01*
X180661682Y-98257951D01*
X180896699Y-98398955D01*
X181100731Y-98555995D01*
X181159948Y-98612259D01*
X181367731Y-98823677D01*
X181485689Y-98730755D01*
X181565032Y-98659315D01*
X181604972Y-98605941D01*
X181605991Y-98601210D01*
X181576183Y-98547002D01*
X181494584Y-98460850D01*
X181379244Y-98358667D01*
X181248215Y-98256366D01*
X181119548Y-98169859D01*
X181110633Y-98164532D01*
X180928632Y-98071300D01*
X180716667Y-97984552D01*
X180502211Y-97913616D01*
X180312733Y-97867822D01*
X180200750Y-97855560D01*
X180095905Y-97861805D01*
X180051061Y-97892431D01*
X180042000Y-97956779D01*
X179679917Y-97956779D01*
X179689879Y-97883456D01*
X179804906Y-97508924D01*
X179876224Y-97367834D01*
X180211200Y-97367834D01*
X180348850Y-97401770D01*
X180786533Y-97528702D01*
X181152253Y-97677784D01*
X181457060Y-97854504D01*
X181712002Y-98064353D01*
X181741347Y-98093628D01*
X181840605Y-98190826D01*
X181916218Y-98257630D01*
X181947852Y-98278000D01*
X181987255Y-98247310D01*
X182051787Y-98171595D01*
X182066038Y-98152714D01*
X182127264Y-98059423D01*
X182157867Y-97992262D01*
X182158666Y-97985707D01*
X182124875Y-97929831D01*
X182034521Y-97843563D01*
X181904137Y-97739242D01*
X181750252Y-97629207D01*
X181589399Y-97525794D01*
X181438109Y-97441343D01*
X181412471Y-97428774D01*
X181233685Y-97353991D01*
X181015349Y-97277617D01*
X180800927Y-97214694D01*
X180774612Y-97208040D01*
X180411361Y-97118364D01*
X180311281Y-97243099D01*
X180211200Y-97367834D01*
X179876224Y-97367834D01*
X179977944Y-97166603D01*
X180205055Y-96872523D01*
X180273200Y-96805828D01*
X180825166Y-96805828D01*
X181100333Y-96899925D01*
X181549047Y-97086011D01*
X181970466Y-97323525D01*
X182116333Y-97423812D01*
X182237172Y-97504564D01*
X182332052Y-97554562D01*
X182380827Y-97563232D01*
X182381239Y-97562869D01*
X182404581Y-97503954D01*
X182421514Y-97397221D01*
X182423572Y-97370985D01*
X182424039Y-97280986D01*
X182401438Y-97214738D01*
X182340610Y-97150219D01*
X182226395Y-97065410D01*
X182201000Y-97047683D01*
X182040768Y-96952369D01*
X181840861Y-96855759D01*
X181643465Y-96778165D01*
X181636033Y-96775683D01*
X181470440Y-96722336D01*
X181356922Y-96694135D01*
X181267346Y-96689114D01*
X181173577Y-96705307D01*
X181064533Y-96735754D01*
X180825166Y-96805828D01*
X180273200Y-96805828D01*
X180283022Y-96796215D01*
X180532255Y-96602623D01*
X180807905Y-96446165D01*
X181084042Y-96339879D01*
X181265782Y-96302069D01*
X181493983Y-96275042D01*
X181291567Y-96195532D01*
X180767778Y-95958401D01*
X180304321Y-95679083D01*
X179882406Y-95345525D01*
X179703333Y-95176739D01*
X179398244Y-94835078D01*
X179169115Y-94491149D01*
X179018272Y-94149452D01*
X178948041Y-93814485D01*
X178942951Y-93706000D01*
X178962033Y-93435230D01*
X179027812Y-93215960D01*
X179148589Y-93024230D01*
X179199518Y-92965530D01*
X179434149Y-92773123D01*
X179724991Y-92643736D01*
X180071407Y-92577642D01*
X180105146Y-92574819D01*
X180517548Y-92584418D01*
G36*
X185100810Y-92403035D02*
G01*
X185116650Y-92419734D01*
X185136566Y-92441399D01*
X185151755Y-92457167D01*
X185294610Y-92609869D01*
X185480100Y-92824430D01*
X185702299Y-93093353D01*
X185955280Y-93409143D01*
X186233114Y-93764302D01*
X186529876Y-94151334D01*
X186839637Y-94562744D01*
X187156471Y-94991036D01*
X187171727Y-95011851D01*
X188174132Y-96380134D01*
X187980653Y-96662317D01*
X187922482Y-96746877D01*
X187820904Y-96894217D01*
X187680660Y-97097470D01*
X187506490Y-97349773D01*
X187303135Y-97644260D01*
X187075335Y-97974067D01*
X186827832Y-98332328D01*
X186565365Y-98712179D01*
X186292675Y-99106755D01*
X186251035Y-99167000D01*
X184714896Y-101389500D01*
X184209364Y-101394218D01*
X184065082Y-101393761D01*
X183846867Y-101390629D01*
X183565403Y-101385082D01*
X183231374Y-101377381D01*
X182855463Y-101367787D01*
X182448353Y-101356560D01*
X182020728Y-101343961D01*
X181583272Y-101330252D01*
X181566000Y-101329693D01*
X181113252Y-101314848D01*
X180726447Y-101301551D01*
X180406896Y-101289510D01*
X180155910Y-101278432D01*
X179974802Y-101268023D01*
X179864881Y-101257990D01*
X179827459Y-101248041D01*
X179863847Y-101237882D01*
X179975357Y-101227220D01*
X180163300Y-101215762D01*
X180428986Y-101203215D01*
X180773728Y-101189286D01*
X181198836Y-101173681D01*
X181705622Y-101156107D01*
X182295396Y-101136272D01*
X182455000Y-101130957D01*
X182863976Y-101116832D01*
X183246967Y-101102593D01*
X183595691Y-101088622D01*
X183901867Y-101075296D01*
X184157213Y-101062996D01*
X184353449Y-101052101D01*
X184482293Y-101042990D01*
X184535464Y-101036043D01*
X184536207Y-101035586D01*
X184563541Y-100994747D01*
X184630275Y-100889017D01*
X184731845Y-100725863D01*
X184863687Y-100512752D01*
X185021237Y-100257152D01*
X185199933Y-99966529D01*
X185395209Y-99648351D01*
X185602502Y-99310084D01*
X185817250Y-98959196D01*
X186034887Y-98603153D01*
X186250850Y-98249423D01*
X186460576Y-97905472D01*
X186659500Y-97578769D01*
X186843060Y-97276779D01*
X187006690Y-97006970D01*
X187145829Y-96776809D01*
X187255911Y-96593763D01*
X187332373Y-96465299D01*
X187370652Y-96398884D01*
X187373608Y-96393098D01*
X187376407Y-96362683D01*
X187362965Y-96310703D01*
X187330144Y-96231448D01*
X187274808Y-96119208D01*
X187193820Y-95968273D01*
X187084043Y-95772935D01*
X186942340Y-95527483D01*
X186765575Y-95226208D01*
X186550610Y-94863400D01*
X186326994Y-94488098D01*
X186058563Y-94038469D01*
X185830417Y-93656381D01*
X185639539Y-93336619D01*
X185482911Y-93073969D01*
X185357517Y-92863215D01*
X185260338Y-92699144D01*
X185188357Y-92576541D01*
X185138557Y-92490191D01*
X185107919Y-92434880D01*
X185093427Y-92405393D01*
X185092064Y-92396517D01*
X185100810Y-92403035D01*
G37*
X185100810Y-92403035D02*
X185116650Y-92419734D01*
X185136566Y-92441399D01*
X185151755Y-92457167D01*
X185294610Y-92609869D01*
X185480100Y-92824430D01*
X185702299Y-93093353D01*
X185955280Y-93409143D01*
X186233114Y-93764302D01*
X186529876Y-94151334D01*
X186839637Y-94562744D01*
X187156471Y-94991036D01*
X187171727Y-95011851D01*
X188174132Y-96380134D01*
X187980653Y-96662317D01*
X187922482Y-96746877D01*
X187820904Y-96894217D01*
X187680660Y-97097470D01*
X187506490Y-97349773D01*
X187303135Y-97644260D01*
X187075335Y-97974067D01*
X186827832Y-98332328D01*
X186565365Y-98712179D01*
X186292675Y-99106755D01*
X186251035Y-99167000D01*
X184714896Y-101389500D01*
X184209364Y-101394218D01*
X184065082Y-101393761D01*
X183846867Y-101390629D01*
X183565403Y-101385082D01*
X183231374Y-101377381D01*
X182855463Y-101367787D01*
X182448353Y-101356560D01*
X182020728Y-101343961D01*
X181583272Y-101330252D01*
X181566000Y-101329693D01*
X181113252Y-101314848D01*
X180726447Y-101301551D01*
X180406896Y-101289510D01*
X180155910Y-101278432D01*
X179974802Y-101268023D01*
X179864881Y-101257990D01*
X179827459Y-101248041D01*
X179863847Y-101237882D01*
X179975357Y-101227220D01*
X180163300Y-101215762D01*
X180428986Y-101203215D01*
X180773728Y-101189286D01*
X181198836Y-101173681D01*
X181705622Y-101156107D01*
X182295396Y-101136272D01*
X182455000Y-101130957D01*
X182863976Y-101116832D01*
X183246967Y-101102593D01*
X183595691Y-101088622D01*
X183901867Y-101075296D01*
X184157213Y-101062996D01*
X184353449Y-101052101D01*
X184482293Y-101042990D01*
X184535464Y-101036043D01*
X184536207Y-101035586D01*
X184563541Y-100994747D01*
X184630275Y-100889017D01*
X184731845Y-100725863D01*
X184863687Y-100512752D01*
X185021237Y-100257152D01*
X185199933Y-99966529D01*
X185395209Y-99648351D01*
X185602502Y-99310084D01*
X185817250Y-98959196D01*
X186034887Y-98603153D01*
X186250850Y-98249423D01*
X186460576Y-97905472D01*
X186659500Y-97578769D01*
X186843060Y-97276779D01*
X187006690Y-97006970D01*
X187145829Y-96776809D01*
X187255911Y-96593763D01*
X187332373Y-96465299D01*
X187370652Y-96398884D01*
X187373608Y-96393098D01*
X187376407Y-96362683D01*
X187362965Y-96310703D01*
X187330144Y-96231448D01*
X187274808Y-96119208D01*
X187193820Y-95968273D01*
X187084043Y-95772935D01*
X186942340Y-95527483D01*
X186765575Y-95226208D01*
X186550610Y-94863400D01*
X186326994Y-94488098D01*
X186058563Y-94038469D01*
X185830417Y-93656381D01*
X185639539Y-93336619D01*
X185482911Y-93073969D01*
X185357517Y-92863215D01*
X185260338Y-92699144D01*
X185188357Y-92576541D01*
X185138557Y-92490191D01*
X185107919Y-92434880D01*
X185093427Y-92405393D01*
X185092064Y-92396517D01*
X185100810Y-92403035D01*
D12*
X173810000Y-104095000D02*
X165310000Y-104095000D01*
X173810000Y-88855000D02*
X173810000Y-104095000D01*
X165310000Y-88855000D02*
X173810000Y-88855000D01*
D13*
X191630000Y-91230000D02*
X192960000Y-91230000D01*
X191630000Y-92560000D02*
X191630000Y-91230000D01*
X191630000Y-93830000D02*
X194290000Y-93830000D01*
X194290000Y-93830000D02*
X194290000Y-101510000D01*
X191630000Y-93830000D02*
X191630000Y-101510000D01*
X191630000Y-101510000D02*
X194290000Y-101510000D01*
X175640000Y-105370000D02*
X175640000Y-104040000D01*
X176970000Y-105370000D02*
X175640000Y-105370000D01*
X178240000Y-105370000D02*
X178240000Y-102710000D01*
X178240000Y-102710000D02*
X183380000Y-102710000D01*
X178240000Y-105370000D02*
X183380000Y-105370000D01*
X183380000Y-105370000D02*
X183380000Y-102710000D01*
X175640000Y-90000000D02*
X175640000Y-88670000D01*
X176970000Y-90000000D02*
X175640000Y-90000000D01*
X178240000Y-90000000D02*
X178240000Y-87340000D01*
X178240000Y-87340000D02*
X183380000Y-87340000D01*
X178240000Y-90000000D02*
X183380000Y-90000000D01*
X183380000Y-90000000D02*
X183380000Y-87340000D01*
X184510000Y-105380000D02*
X184510000Y-104050000D01*
X185840000Y-105380000D02*
X184510000Y-105380000D01*
X187110000Y-105380000D02*
X187110000Y-102720000D01*
X187110000Y-102720000D02*
X192250000Y-102720000D01*
X187110000Y-105380000D02*
X192250000Y-105380000D01*
X192250000Y-105380000D02*
X192250000Y-102720000D01*
X184510000Y-90000000D02*
X184510000Y-88670000D01*
X185840000Y-90000000D02*
X184510000Y-90000000D01*
X187110000Y-90000000D02*
X187110000Y-87340000D01*
X187110000Y-87340000D02*
X192250000Y-87340000D01*
X187110000Y-90000000D02*
X192250000Y-90000000D01*
X192250000Y-90000000D02*
X192250000Y-87340000D01*
D14*
X174550000Y-94309285D02*
X174550000Y-94845000D01*
X174514285Y-94952142D01*
X174442857Y-95023571D01*
X174335714Y-95059285D01*
X174264285Y-95059285D01*
X174871428Y-94380714D02*
X174907142Y-94345000D01*
X174978571Y-94309285D01*
X175157142Y-94309285D01*
X175228571Y-94345000D01*
X175264285Y-94380714D01*
X175300000Y-94452142D01*
X175300000Y-94523571D01*
X175264285Y-94630714D01*
X174835714Y-95059285D01*
X175300000Y-95059285D01*
D10*
X193520000Y-102289285D02*
X193520000Y-102825000D01*
X193484285Y-102932142D01*
X193412857Y-103003571D01*
X193305714Y-103039285D01*
X193234285Y-103039285D01*
X193805714Y-102289285D02*
X194305714Y-102289285D01*
X193984285Y-103039285D01*
X174240000Y-104789285D02*
X174240000Y-105325000D01*
X174204285Y-105432142D01*
X174132857Y-105503571D01*
X174025714Y-105539285D01*
X173954285Y-105539285D01*
X174918571Y-104789285D02*
X174775714Y-104789285D01*
X174704285Y-104825000D01*
X174668571Y-104860714D01*
X174597142Y-104967857D01*
X174561428Y-105110714D01*
X174561428Y-105396428D01*
X174597142Y-105467857D01*
X174632857Y-105503571D01*
X174704285Y-105539285D01*
X174847142Y-105539285D01*
X174918571Y-105503571D01*
X174954285Y-105467857D01*
X174990000Y-105396428D01*
X174990000Y-105217857D01*
X174954285Y-105146428D01*
X174918571Y-105110714D01*
X174847142Y-105075000D01*
X174704285Y-105075000D01*
X174632857Y-105110714D01*
X174597142Y-105146428D01*
X174561428Y-105217857D01*
X174170000Y-87329285D02*
X174170000Y-87865000D01*
X174134285Y-87972142D01*
X174062857Y-88043571D01*
X173955714Y-88079285D01*
X173884285Y-88079285D01*
X174884285Y-87329285D02*
X174527142Y-87329285D01*
X174491428Y-87686428D01*
X174527142Y-87650714D01*
X174598571Y-87615000D01*
X174777142Y-87615000D01*
X174848571Y-87650714D01*
X174884285Y-87686428D01*
X174920000Y-87757857D01*
X174920000Y-87936428D01*
X174884285Y-88007857D01*
X174848571Y-88043571D01*
X174777142Y-88079285D01*
X174598571Y-88079285D01*
X174527142Y-88043571D01*
X174491428Y-88007857D01*
X193180000Y-103629285D02*
X193180000Y-104165000D01*
X193144285Y-104272142D01*
X193072857Y-104343571D01*
X192965714Y-104379285D01*
X192894285Y-104379285D01*
X193858571Y-103879285D02*
X193858571Y-104379285D01*
X193680000Y-103593571D02*
X193501428Y-104129285D01*
X193965714Y-104129285D01*
X193140000Y-88189285D02*
X193140000Y-88725000D01*
X193104285Y-88832142D01*
X193032857Y-88903571D01*
X192925714Y-88939285D01*
X192854285Y-88939285D01*
X193425714Y-88189285D02*
X193890000Y-88189285D01*
X193640000Y-88475000D01*
X193747142Y-88475000D01*
X193818571Y-88510714D01*
X193854285Y-88546428D01*
X193890000Y-88617857D01*
X193890000Y-88796428D01*
X193854285Y-88867857D01*
X193818571Y-88903571D01*
X193747142Y-88939285D01*
X193532857Y-88939285D01*
X193461428Y-88903571D01*
X193425714Y-88867857D01*
%LPC*%
D15*
X163690000Y-102191000D03*
X163690000Y-90759000D03*
D16*
X172580000Y-100920000D03*
X170040000Y-99650000D03*
X172580000Y-98380000D03*
X170040000Y-97110000D03*
X172580000Y-95840000D03*
X170040000Y-94570000D03*
X172580000Y-93300000D03*
X170040000Y-92030000D03*
D17*
X167250000Y-91440000D03*
X167250000Y-93940000D03*
X167250000Y-96440000D03*
X167250000Y-98940000D03*
D18*
X167250000Y-101440000D03*
D19*
X192960000Y-100180000D03*
X192960000Y-97640000D03*
X192960000Y-95100000D03*
D20*
X192960000Y-92560000D03*
D19*
X182050000Y-104040000D03*
X179510000Y-104040000D03*
D20*
X176970000Y-104040000D03*
D19*
X182050000Y-88670000D03*
X179510000Y-88670000D03*
D20*
X176970000Y-88670000D03*
D19*
X190920000Y-104050000D03*
X188380000Y-104050000D03*
D20*
X185840000Y-104050000D03*
D19*
X190920000Y-88670000D03*
X188380000Y-88670000D03*
D20*
X185840000Y-88670000D03*
M02*
