%FSLAX45Y45*%
G04 Gerber Fmt 4.5, Leading zero omitted, Abs format (unit mm)*
G04 Created by KiCad (PCBNEW 5.1.5+dfsg1-2build2) date 2023-02-08 22:03:10*
%MOMM*%
%LPD*%
G04 APERTURE LIST*
%TA.AperFunction,Profile*%
%ADD10C,0.050000*%
%TD*%
%ADD11C,0.200000*%
%ADD12C,0.300000*%
G04 APERTURE END LIST*
D10*
X19473000Y-10588000D02*
X16073000Y-10588000D01*
X19474000Y-8688000D02*
X16074000Y-8688000D01*
X19473000Y-10588000D02*
X19474000Y-8688000D01*
X16074000Y-8688000D02*
X16073000Y-10588000D01*
D11*
X16201500Y-8908400D02*
X16536500Y-9243400D01*
X16536500Y-8908400D02*
X16201500Y-9243400D01*
X16201500Y-10051600D02*
X16536500Y-10386600D01*
X16536500Y-10051600D02*
X16201500Y-10386600D01*
D12*
X16356928Y-11056214D02*
X16356928Y-10756214D01*
X16428357Y-10756214D01*
X16471214Y-10770500D01*
X16499786Y-10799072D01*
X16514071Y-10827643D01*
X16528357Y-10884786D01*
X16528357Y-10927643D01*
X16514071Y-10984786D01*
X16499786Y-11013357D01*
X16471214Y-11041929D01*
X16428357Y-11056214D01*
X16356928Y-11056214D01*
X16656928Y-11056214D02*
X16656928Y-10856214D01*
X16656928Y-10913357D02*
X16671214Y-10884786D01*
X16685500Y-10870500D01*
X16714071Y-10856214D01*
X16742643Y-10856214D01*
X16842643Y-11056214D02*
X16842643Y-10856214D01*
X16842643Y-10756214D02*
X16828357Y-10770500D01*
X16842643Y-10784786D01*
X16856928Y-10770500D01*
X16842643Y-10756214D01*
X16842643Y-10784786D01*
X17028357Y-11056214D02*
X16999786Y-11041929D01*
X16985500Y-11013357D01*
X16985500Y-10756214D01*
X17185500Y-11056214D02*
X17156928Y-11041929D01*
X17142643Y-11013357D01*
X17142643Y-10756214D01*
X17528357Y-11056214D02*
X17528357Y-10756214D01*
X17628357Y-10970500D01*
X17728357Y-10756214D01*
X17728357Y-11056214D01*
X17999786Y-11056214D02*
X17999786Y-10899072D01*
X17985500Y-10870500D01*
X17956928Y-10856214D01*
X17899786Y-10856214D01*
X17871214Y-10870500D01*
X17999786Y-11041929D02*
X17971214Y-11056214D01*
X17899786Y-11056214D01*
X17871214Y-11041929D01*
X17856928Y-11013357D01*
X17856928Y-10984786D01*
X17871214Y-10956214D01*
X17899786Y-10941929D01*
X17971214Y-10941929D01*
X17999786Y-10927643D01*
X18142643Y-10856214D02*
X18142643Y-11156214D01*
X18142643Y-10870500D02*
X18171214Y-10856214D01*
X18228357Y-10856214D01*
X18256928Y-10870500D01*
X18271214Y-10884786D01*
X18285500Y-10913357D01*
X18285500Y-10999072D01*
X18271214Y-11027643D01*
X18256928Y-11041929D01*
X18228357Y-11056214D01*
X18171214Y-11056214D01*
X18142643Y-11041929D01*
X18414071Y-11027643D02*
X18428357Y-11041929D01*
X18414071Y-11056214D01*
X18399786Y-11041929D01*
X18414071Y-11027643D01*
X18414071Y-11056214D01*
X18414071Y-10870500D02*
X18428357Y-10884786D01*
X18414071Y-10899072D01*
X18399786Y-10884786D01*
X18414071Y-10870500D01*
X18414071Y-10899072D01*
X15735500Y-11383000D02*
X16070500Y-11718000D01*
X16070500Y-11383000D02*
X15735500Y-11718000D01*
X16328357Y-11386214D02*
X16514071Y-11386214D01*
X16414071Y-11500500D01*
X16456928Y-11500500D01*
X16485500Y-11514786D01*
X16499786Y-11529071D01*
X16514071Y-11557643D01*
X16514071Y-11629071D01*
X16499786Y-11657643D01*
X16485500Y-11671929D01*
X16456928Y-11686214D01*
X16371214Y-11686214D01*
X16342643Y-11671929D01*
X16328357Y-11657643D01*
X16642643Y-11657643D02*
X16656928Y-11671929D01*
X16642643Y-11686214D01*
X16628357Y-11671929D01*
X16642643Y-11657643D01*
X16642643Y-11686214D01*
X16756928Y-11386214D02*
X16942643Y-11386214D01*
X16842643Y-11500500D01*
X16885500Y-11500500D01*
X16914071Y-11514786D01*
X16928357Y-11529071D01*
X16942643Y-11557643D01*
X16942643Y-11629071D01*
X16928357Y-11657643D01*
X16914071Y-11671929D01*
X16885500Y-11686214D01*
X16799786Y-11686214D01*
X16771214Y-11671929D01*
X16756928Y-11657643D01*
X17214071Y-11386214D02*
X17071214Y-11386214D01*
X17056928Y-11529071D01*
X17071214Y-11514786D01*
X17099786Y-11500500D01*
X17171214Y-11500500D01*
X17199786Y-11514786D01*
X17214071Y-11529071D01*
X17228357Y-11557643D01*
X17228357Y-11629071D01*
X17214071Y-11657643D01*
X17199786Y-11671929D01*
X17171214Y-11686214D01*
X17099786Y-11686214D01*
X17071214Y-11671929D01*
X17056928Y-11657643D01*
X17356928Y-11686214D02*
X17356928Y-11486214D01*
X17356928Y-11514786D02*
X17371214Y-11500500D01*
X17399786Y-11486214D01*
X17442643Y-11486214D01*
X17471214Y-11500500D01*
X17485500Y-11529071D01*
X17485500Y-11686214D01*
X17485500Y-11529071D02*
X17499786Y-11500500D01*
X17528357Y-11486214D01*
X17571214Y-11486214D01*
X17599786Y-11500500D01*
X17614071Y-11529071D01*
X17614071Y-11686214D01*
X17756928Y-11686214D02*
X17756928Y-11486214D01*
X17756928Y-11514786D02*
X17771214Y-11500500D01*
X17799786Y-11486214D01*
X17842643Y-11486214D01*
X17871214Y-11500500D01*
X17885500Y-11529071D01*
X17885500Y-11686214D01*
X17885500Y-11529071D02*
X17899786Y-11500500D01*
X17928357Y-11486214D01*
X17971214Y-11486214D01*
X17999786Y-11500500D01*
X18014071Y-11529071D01*
X18014071Y-11686214D01*
X18599786Y-11371929D02*
X18342643Y-11757643D01*
X18985500Y-11386214D02*
X19014071Y-11386214D01*
X19042643Y-11400500D01*
X19056928Y-11414786D01*
X19071214Y-11443357D01*
X19085500Y-11500500D01*
X19085500Y-11571929D01*
X19071214Y-11629071D01*
X19056928Y-11657643D01*
X19042643Y-11671929D01*
X19014071Y-11686214D01*
X18985500Y-11686214D01*
X18956928Y-11671929D01*
X18942643Y-11657643D01*
X18928357Y-11629071D01*
X18914071Y-11571929D01*
X18914071Y-11500500D01*
X18928357Y-11443357D01*
X18942643Y-11414786D01*
X18956928Y-11400500D01*
X18985500Y-11386214D01*
X19214071Y-11657643D02*
X19228357Y-11671929D01*
X19214071Y-11686214D01*
X19199786Y-11671929D01*
X19214071Y-11657643D01*
X19214071Y-11686214D01*
X19514071Y-11686214D02*
X19342643Y-11686214D01*
X19428357Y-11686214D02*
X19428357Y-11386214D01*
X19399786Y-11429071D01*
X19371214Y-11457643D01*
X19342643Y-11471929D01*
X19614071Y-11386214D02*
X19799786Y-11386214D01*
X19699786Y-11500500D01*
X19742643Y-11500500D01*
X19771214Y-11514786D01*
X19785500Y-11529071D01*
X19799786Y-11557643D01*
X19799786Y-11629071D01*
X19785500Y-11657643D01*
X19771214Y-11671929D01*
X19742643Y-11686214D01*
X19656928Y-11686214D01*
X19628357Y-11671929D01*
X19614071Y-11657643D01*
X19914071Y-11414786D02*
X19928357Y-11400500D01*
X19956928Y-11386214D01*
X20028357Y-11386214D01*
X20056928Y-11400500D01*
X20071214Y-11414786D01*
X20085500Y-11443357D01*
X20085500Y-11471929D01*
X20071214Y-11514786D01*
X19899786Y-11686214D01*
X20085500Y-11686214D01*
X20199786Y-11386214D02*
X20199786Y-11443357D01*
X20314071Y-11386214D02*
X20314071Y-11443357D01*
X20756928Y-11800500D02*
X20742643Y-11786214D01*
X20714071Y-11743357D01*
X20699786Y-11714786D01*
X20685500Y-11671929D01*
X20671214Y-11600500D01*
X20671214Y-11543357D01*
X20685500Y-11471929D01*
X20699786Y-11429071D01*
X20714071Y-11400500D01*
X20742643Y-11357643D01*
X20756928Y-11343357D01*
X20856928Y-11414786D02*
X20871214Y-11400500D01*
X20899786Y-11386214D01*
X20971214Y-11386214D01*
X20999786Y-11400500D01*
X21014071Y-11414786D01*
X21028357Y-11443357D01*
X21028357Y-11471929D01*
X21014071Y-11514786D01*
X20842643Y-11686214D01*
X21028357Y-11686214D01*
X21385500Y-11686214D02*
X21385500Y-11386214D01*
X21514071Y-11686214D02*
X21514071Y-11529071D01*
X21499786Y-11500500D01*
X21471214Y-11486214D01*
X21428357Y-11486214D01*
X21399786Y-11500500D01*
X21385500Y-11514786D01*
X21699786Y-11686214D02*
X21671214Y-11671929D01*
X21656928Y-11657643D01*
X21642643Y-11629071D01*
X21642643Y-11543357D01*
X21656928Y-11514786D01*
X21671214Y-11500500D01*
X21699786Y-11486214D01*
X21742643Y-11486214D01*
X21771214Y-11500500D01*
X21785500Y-11514786D01*
X21799786Y-11543357D01*
X21799786Y-11629071D01*
X21785500Y-11657643D01*
X21771214Y-11671929D01*
X21742643Y-11686214D01*
X21699786Y-11686214D01*
X21971214Y-11686214D02*
X21942643Y-11671929D01*
X21928357Y-11643357D01*
X21928357Y-11386214D01*
X22199786Y-11671929D02*
X22171214Y-11686214D01*
X22114071Y-11686214D01*
X22085500Y-11671929D01*
X22071214Y-11643357D01*
X22071214Y-11529071D01*
X22085500Y-11500500D01*
X22114071Y-11486214D01*
X22171214Y-11486214D01*
X22199786Y-11500500D01*
X22214071Y-11529071D01*
X22214071Y-11557643D01*
X22071214Y-11586214D01*
X22328357Y-11671929D02*
X22356928Y-11686214D01*
X22414071Y-11686214D01*
X22442643Y-11671929D01*
X22456928Y-11643357D01*
X22456928Y-11629071D01*
X22442643Y-11600500D01*
X22414071Y-11586214D01*
X22371214Y-11586214D01*
X22342643Y-11571929D01*
X22328357Y-11543357D01*
X22328357Y-11529071D01*
X22342643Y-11500500D01*
X22371214Y-11486214D01*
X22414071Y-11486214D01*
X22442643Y-11500500D01*
X22556928Y-11800500D02*
X22571214Y-11786214D01*
X22599786Y-11743357D01*
X22614071Y-11714786D01*
X22628357Y-11671929D01*
X22642643Y-11600500D01*
X22642643Y-11543357D01*
X22628357Y-11471929D01*
X22614071Y-11429071D01*
X22599786Y-11400500D01*
X22571214Y-11357643D01*
X22556928Y-11343357D01*
X23099786Y-11800500D02*
X23085500Y-11786214D01*
X23056928Y-11743357D01*
X23042643Y-11714786D01*
X23028357Y-11671929D01*
X23014071Y-11600500D01*
X23014071Y-11543357D01*
X23028357Y-11471929D01*
X23042643Y-11429071D01*
X23056928Y-11400500D01*
X23085500Y-11357643D01*
X23099786Y-11343357D01*
X23214071Y-11486214D02*
X23214071Y-11686214D01*
X23214071Y-11514786D02*
X23228357Y-11500500D01*
X23256928Y-11486214D01*
X23299786Y-11486214D01*
X23328357Y-11500500D01*
X23342643Y-11529071D01*
X23342643Y-11686214D01*
X23528357Y-11686214D02*
X23499786Y-11671929D01*
X23485500Y-11657643D01*
X23471214Y-11629071D01*
X23471214Y-11543357D01*
X23485500Y-11514786D01*
X23499786Y-11500500D01*
X23528357Y-11486214D01*
X23571214Y-11486214D01*
X23599786Y-11500500D01*
X23614071Y-11514786D01*
X23628357Y-11543357D01*
X23628357Y-11629071D01*
X23614071Y-11657643D01*
X23599786Y-11671929D01*
X23571214Y-11686214D01*
X23528357Y-11686214D01*
X23714071Y-11486214D02*
X23828357Y-11486214D01*
X23756928Y-11386214D02*
X23756928Y-11643357D01*
X23771214Y-11671929D01*
X23799786Y-11686214D01*
X23828357Y-11686214D01*
X24156928Y-11486214D02*
X24156928Y-11786214D01*
X24156928Y-11500500D02*
X24185500Y-11486214D01*
X24242643Y-11486214D01*
X24271214Y-11500500D01*
X24285500Y-11514786D01*
X24299786Y-11543357D01*
X24299786Y-11629071D01*
X24285500Y-11657643D01*
X24271214Y-11671929D01*
X24242643Y-11686214D01*
X24185500Y-11686214D01*
X24156928Y-11671929D01*
X24471214Y-11686214D02*
X24442643Y-11671929D01*
X24428357Y-11643357D01*
X24428357Y-11386214D01*
X24714071Y-11686214D02*
X24714071Y-11529071D01*
X24699786Y-11500500D01*
X24671214Y-11486214D01*
X24614071Y-11486214D01*
X24585500Y-11500500D01*
X24714071Y-11671929D02*
X24685500Y-11686214D01*
X24614071Y-11686214D01*
X24585500Y-11671929D01*
X24571214Y-11643357D01*
X24571214Y-11614786D01*
X24585500Y-11586214D01*
X24614071Y-11571929D01*
X24685500Y-11571929D01*
X24714071Y-11557643D01*
X24814071Y-11486214D02*
X24928357Y-11486214D01*
X24856928Y-11386214D02*
X24856928Y-11643357D01*
X24871214Y-11671929D01*
X24899786Y-11686214D01*
X24928357Y-11686214D01*
X25142643Y-11671929D02*
X25114071Y-11686214D01*
X25056928Y-11686214D01*
X25028357Y-11671929D01*
X25014071Y-11643357D01*
X25014071Y-11529071D01*
X25028357Y-11500500D01*
X25056928Y-11486214D01*
X25114071Y-11486214D01*
X25142643Y-11500500D01*
X25156928Y-11529071D01*
X25156928Y-11557643D01*
X25014071Y-11586214D01*
X25414071Y-11686214D02*
X25414071Y-11386214D01*
X25414071Y-11671929D02*
X25385500Y-11686214D01*
X25328357Y-11686214D01*
X25299786Y-11671929D01*
X25285500Y-11657643D01*
X25271214Y-11629071D01*
X25271214Y-11543357D01*
X25285500Y-11514786D01*
X25299786Y-11500500D01*
X25328357Y-11486214D01*
X25385500Y-11486214D01*
X25414071Y-11500500D01*
X25528357Y-11800500D02*
X25542643Y-11786214D01*
X25571214Y-11743357D01*
X25585500Y-11714786D01*
X25599786Y-11671929D01*
X25614071Y-11600500D01*
X25614071Y-11543357D01*
X25599786Y-11471929D01*
X25585500Y-11429071D01*
X25571214Y-11400500D01*
X25542643Y-11357643D01*
X25528357Y-11343357D01*
M02*
